<svg width="65" height="65" viewBox="0 0 65 65" fill="none" xmlns="http://www.w3.org/2000/svg">
<path d="M29.4461 1.323C28.2085 1.83511 25.6693 2.88066 23.7916 3.64882C21.9139 4.39564 20.1855 5.12112 19.9508 5.22781C19.5667 5.41985 12.4399 8.32178 4.16086 11.6505C2.2618 12.4186 0.768159 13.1654 0.490768 13.4855C0.0213377 13.9763 0 14.1256 0 18.3719V22.7674L0.618794 23.3862C1.21625 23.9837 1.32294 24.005 3.17932 24.005H5.12106V34.6739V45.3428H4.45959C4.03283 45.3428 3.60608 45.5561 3.17932 45.9616L2.56053 46.5803V49.6957V52.811H1.89906C1.4723 52.811 1.04555 53.0243 0.618794 53.4298L0 54.0486V58.5722V63.0958L0.618794 63.7145L1.23759 64.3333H32.0066H62.7756L63.3944 63.7145L64.0132 63.0958V58.7855C64.0132 55.3715 63.9492 54.3686 63.6931 53.8779C63.3304 53.1524 62.7756 52.811 62.0288 52.811H61.4954L61.41 49.589L61.346 46.367L60.7485 45.8549C60.4071 45.5561 59.8737 45.3428 59.511 45.3428H58.8922V34.6739V24.005H60.8339C62.6903 24.005 62.797 23.9837 63.3944 23.3862L64.0132 22.7674V18.5852C64.0132 14.1256 63.9279 13.6135 62.989 13.0801C62.6689 12.8881 56.353 10.2635 48.9701 7.25489C31.1744 -0.0212751 32.0066 0.320129 31.8359 0.341466C31.7506 0.362804 30.6837 0.789559 29.4461 1.323ZM33.1162 4.58768C33.6283 4.82239 37.8745 6.59342 42.5688 8.53516C47.2631 10.4769 51.7867 12.3546 52.5975 12.7174C53.4297 13.0588 55.4354 13.8909 57.0784 14.5737L60.0657 15.8327L60.1297 18.0945L60.1938 20.3776H32.0066H3.81946L3.88347 18.0945L3.94748 15.8113L8.64178 13.8483C11.2237 12.7814 13.5708 11.7998 13.8695 11.6718C14.1683 11.5438 17.6676 10.0715 21.6578 8.40713C25.648 6.76413 29.5314 5.12112 30.2996 4.80105C32.0066 4.07557 32.0066 4.07557 33.1162 4.58768ZM12.5466 34.7166L12.5893 45.3428H10.7756H8.96185V34.6739V23.9837L10.7329 24.0477L12.4826 24.1117L12.5466 34.7166ZM47.5832 34.6739V45.3428H47.0284C46.7083 45.3428 46.2175 45.5988 45.8548 45.9616L45.236 46.5803V49.6957V52.811H32.0279H18.8199L18.7345 49.589L18.6705 46.367L18.0731 45.8549C17.753 45.5775 17.2409 45.3428 16.9422 45.3428H16.4301V34.6739V24.005H32.0066H47.5832V34.6739ZM55.0087 34.7166L55.0514 45.3428H53.2377H51.4239V34.6739V23.9837L53.195 24.0477L54.9447 24.1117L55.0087 34.7166ZM15.0431 50.9973V52.7043L10.7329 52.7683L6.40132 52.811V50.9973V49.1835L10.7329 49.2262L15.0431 49.2902V50.9973ZM57.5692 51.0399L57.6332 52.811H53.2377H48.8634V51.1466C48.8634 50.2291 48.9274 49.3969 49.0128 49.3116C49.0981 49.2476 51.0399 49.2049 53.323 49.2262L57.5052 49.2902L57.5692 51.0399ZM60.1297 58.5081L60.0657 60.3859L31.9639 60.4499L3.84079 60.4926V58.5722V56.6518H32.0066H60.1938L60.1297 58.5081Z" fill="#DC1F1D"/>
<path d="M19.695 13.3148C18.5001 14.0616 18.5001 15.3846 19.695 16.11C20.3565 16.5155 20.8259 16.5368 31.9642 16.5368C44.6175 16.5368 44.5535 16.5368 44.9589 15.3206C45.2576 14.403 45.0442 13.7842 44.3188 13.3148C43.6573 12.9307 43.1239 12.9094 32.0069 12.9094C20.8899 12.9094 20.3565 12.9307 19.695 13.3148Z" fill="#DC1F1D"/>
<path d="M31.4307 26.7149C30.7479 26.8429 30.0864 27.7818 30.0864 28.614C30.0864 29.1688 29.9584 29.4035 29.5103 29.6382C28.6141 30.0863 27.5899 31.1532 27.0564 32.156C26.4163 33.351 26.3736 35.8901 26.9711 37.021C27.9313 38.8348 30.0651 40.2217 31.9214 40.2217C32.9457 40.2217 33.9272 41.1819 33.9272 42.1848C33.9059 43.2517 33.3297 43.8705 32.1562 43.9985C31.324 44.1052 31.1106 44.0412 30.6625 43.5931C30.3851 43.3157 30.0864 42.6969 30.0224 42.2061C29.8517 41.2459 28.8915 40.2217 28.1233 40.2217C27.3978 40.2217 26.459 41.4166 26.459 42.3555C26.459 44.1692 27.5472 46.0256 29.1262 46.9644C29.9584 47.4339 30.0864 47.6046 30.0864 48.2234C30.0864 48.6074 30.2784 49.1622 30.5345 49.4823C30.8972 49.9517 31.1533 50.0371 31.9855 50.0371C33.223 50.0371 33.6925 49.6103 33.8632 48.3727C33.9699 47.6472 34.1192 47.4125 34.9941 46.8577C36.1677 46.0896 36.9572 44.98 37.2986 43.5931C37.64 42.2701 37.6186 41.8007 37.2132 40.4564C36.5731 38.2586 34.2473 36.5943 31.8574 36.5943C30.8119 36.5943 30.0864 35.8048 30.0864 34.6739C30.0864 33.5003 30.8119 32.7535 31.9428 32.7535C33.159 32.7748 33.9272 33.5643 33.9272 34.7806C33.9272 35.4634 34.9941 36.5943 35.6342 36.5943C36.8291 36.5943 37.6826 35.378 37.4693 33.9697C37.1919 32.2201 35.8689 30.321 34.4393 29.5955C34.1192 29.4248 33.9485 29.0834 33.8632 28.4646C33.6925 27.1417 32.775 26.4802 31.4307 26.7149Z" fill="#DC1F1D"/>
</svg>
