<svg width="226" height="225" viewBox="0 0 226 225" fill="none" xmlns="http://www.w3.org/2000/svg">
<path fill-rule="evenodd" clip-rule="evenodd" d="M116.172 0.562521C113.526 0.0651202 110.859 -0.10158 108.172 0.0625205C72.8119 18.4939 37.3115 36.8272 1.6719 55.0625C-0.730399 59.6768 -0.230399 63.8435 3.1719 67.5625C15.3285 73.4735 27.3285 79.6405 39.1719 86.0625C27.2274 93.3735 14.8941 100.207 2.1719 106.563C-0.4948 110.563 -0.4948 114.563 2.1719 118.563C14.8941 124.919 27.2274 131.752 39.1719 139.063C27.3285 145.485 15.3285 151.652 3.1719 157.563C-0.760299 162.159 -0.760299 166.826 3.1719 171.563C38.3274 188.974 73.3279 206.641 108.172 224.563C111.6 225.264 114.934 224.931 118.172 223.563L220.172 172.563C225.511 168.868 226.511 164.202 223.172 158.563C210.349 152.318 197.682 145.818 185.172 139.063C197.676 131.977 210.343 125.143 223.172 118.563C225.839 114.563 225.839 110.563 223.172 106.563C210.343 99.9825 197.676 93.1485 185.172 86.0625C197.682 79.3075 210.349 72.8075 223.172 66.5625C226.511 60.9239 225.511 56.2572 220.172 52.5625C202.81 43.8818 185.449 35.201 168.087 26.5202C150.782 17.8677 133.477 9.21508 116.172 0.562521ZM196.172 60.5625C168.051 46.1681 139.718 32.3348 111.172 19.0625C83.9929 33.1522 56.6599 46.9855 29.1719 60.5625C56.5539 75.0025 84.3869 88.8365 112.672 102.062C140.833 88.8985 168.666 75.0655 196.172 60.5625ZM62.1719 97.5624C60.8789 97.0724 59.5449 96.9054 58.1719 97.0624C49.4219 101.939 40.4215 106.606 31.1719 111.062C29.8385 112.062 29.8385 113.062 31.1719 114.062C58.3888 128.006 85.7218 141.339 113.172 154.062C140.964 141 168.297 127.167 195.172 112.562C185.282 107.033 175.116 101.867 164.672 97.0624C147.33 105.484 129.83 113.484 112.172 121.062C95.4008 113.523 78.7339 105.69 62.1719 97.5624ZM58.1719 149.062C75.1519 156.051 91.8189 163.883 108.172 172.562C111.172 173.23 114.172 173.23 117.172 172.562C133.083 164.432 149.083 156.6 165.172 149.062C175.748 153.684 186.081 158.85 196.172 164.562C168.4 178.531 140.567 192.365 112.672 206.062C84.7149 192.333 56.8809 178.501 29.1719 164.562C38.8686 159.381 48.5349 154.215 58.1719 149.062Z" fill="#DC1F1D"/>
</svg>
