<svg width="65" height="64" viewBox="0 0 65 64" fill="none" xmlns="http://www.w3.org/2000/svg">
<path d="M23.8541 0.28538C22.2533 0.712279 21.122 1.39532 19.7773 2.69736C18.1337 4.29823 17.3439 5.74968 16.9384 7.79879C16.5115 9.99732 16.8317 12.2172 17.8349 14.245C18.5606 15.7178 18.2404 15.3762 28.4006 25.3016C32.5842 29.4212 31.9866 29.4426 36.8745 24.768C45.5833 16.4648 46.2023 15.8031 47.0774 13.9461C47.8885 12.2599 47.9099 12.2172 47.9099 9.67715C47.9099 7.20114 47.8885 7.07307 47.1841 5.62161C44.7295 0.584209 38.7102 -1.44356 33.9716 1.13918C33.2459 1.54473 32.4988 1.88625 32.3494 1.88625C32.2 1.88625 31.6237 1.63011 31.0687 1.33128C28.8062 0.0719306 26.074 -0.333623 23.8541 0.28538ZM28.9983 4.34092C29.5319 4.6184 30.4497 5.2374 31.026 5.70699C31.581 6.19793 32.2427 6.58213 32.4561 6.58213C32.6696 6.58213 33.3526 6.13389 33.9716 5.60027C35.5512 4.1915 36.7038 3.72191 38.5181 3.70057C39.8628 3.70057 40.1617 3.78595 41.2716 4.44764C44.2172 6.19793 45.135 9.29294 43.6409 12.452C43.1926 13.3912 42.0827 14.6078 37.8564 18.8128C34.9748 21.6517 32.5629 23.9996 32.4775 24.0209C32.3921 24.0636 29.8521 21.6517 26.8424 18.6847C20.6097 12.5801 20.4176 12.3239 20.3963 9.57042C20.3749 8.20435 20.4603 7.82014 20.9512 6.98769C22.6802 4.02074 26.1807 2.88946 28.9983 4.34092Z" fill="#DC1F1D"/>
<path d="M4.08891 3.87132C3.00032 4.21284 1.39945 5.77102 0.865829 7.00903C0.417585 8.07627 0.39624 8.183 0.460275 20.3069C0.52431 31.5984 0.545655 32.6016 0.929863 33.5835C1.14331 34.1598 2.48804 36.465 3.89681 38.7063C5.30557 40.9261 7.46141 44.3413 8.69942 46.2837C9.91608 48.2261 11.4102 50.5527 12.0079 51.4705C13.6514 54.0106 13.8649 54.9071 13.8649 59.0053C13.8649 62.7193 13.993 63.381 14.8681 63.7652C15.231 63.936 20.4178 64 32.5417 64H49.703L50.3007 63.4877L50.8983 62.9754L51.0051 58.7278C51.1118 54.7363 51.1545 54.4375 51.6668 53.4343C52.1577 52.4737 54.1001 49.336 56.0211 46.3904C58.305 42.9112 62.8942 35.5685 63.3424 34.7148C64.367 32.7083 64.431 31.8332 64.4524 19.8587C64.4524 7.24382 64.4524 7.1371 62.9582 5.45085C61.8269 4.17015 60.5463 3.59384 58.86 3.61518C56.5761 3.63653 54.7618 4.70377 53.7159 6.66751C53.2676 7.52131 53.2463 7.79879 53.1396 15.4189L53.0328 23.2739L51.3252 23.3166C48.6358 23.3592 48.465 23.4873 39.8844 32.1107C35.7648 36.2729 32.3709 39.6668 32.3496 39.6668C32.3283 39.6668 28.849 36.2089 24.6441 31.9826C19.2865 26.625 16.6611 24.149 15.9994 23.8075C15.2737 23.4446 14.6333 23.3379 13.3313 23.3166H11.6237L11.5169 15.3122C11.4529 9.8479 11.3248 7.15844 11.1541 6.77423C10.7272 5.81371 9.57456 4.66108 8.50731 4.10612C7.37603 3.55115 5.43364 3.44442 4.08891 3.87132ZM6.8851 7.45727C7.18393 7.58534 7.52545 7.92686 7.65352 8.22569C7.82428 8.56721 7.88831 12.0037 7.88831 19.2397V29.7414L8.50731 31.0221C8.99825 32.0466 9.89473 33.0498 12.9684 36.1235C16.6824 39.8162 16.8318 39.9443 17.707 39.9656C18.7956 39.9869 19.4146 39.3679 19.4146 38.2153C19.4146 37.5323 19.0944 37.1481 15.5725 33.5835C11.8158 29.7841 11.7304 29.6773 11.7304 28.8022C11.7304 27.244 13.1178 26.3902 14.4412 27.1373C14.676 27.2867 18.1979 30.6806 22.2534 34.6721C29.0198 41.3744 29.6388 42.0574 30.0657 43.1673C30.4926 44.32 30.5139 44.7469 30.5139 52.2603V60.1579H24.0464H17.5576L17.4295 57.4258C17.1947 52.3243 17.4508 52.9006 9.27573 40.3071C5.94592 35.1843 4.7933 33.2846 4.49447 32.4308C4.32371 31.9186 4.25967 28.2045 4.25967 20.1148V8.54586L4.81464 7.88417C5.39095 7.17979 6.00996 7.05172 6.8851 7.45727ZM59.9913 7.86282L60.6316 8.48183L60.5676 20.2856C60.5036 33.8396 60.7597 32.132 58.0702 36.2943C55.765 39.8802 53.5878 43.2527 51.2826 46.8387C47.9954 51.9401 47.6112 52.986 47.3978 57.2763L47.2697 60.0512H40.8022H34.3347L34.356 52.0041C34.3774 44.384 34.3987 43.8717 34.8043 42.9326C35.1458 42.1428 36.2771 40.8834 39.863 37.3402C42.4031 34.8428 45.8396 31.449 47.5045 29.8268C50.194 27.1586 50.5782 26.8598 51.2399 26.8598C52.051 26.8812 52.5206 27.1586 52.8834 27.863C53.5024 29.0157 53.3103 29.3145 49.5323 33.1352C47.5685 35.1416 45.7969 37.02 45.5835 37.3188C45.1139 38.0446 45.1566 38.6849 45.7542 39.3893C46.1811 39.8802 46.4373 39.9869 47.163 39.9656C48.0381 39.9443 48.1875 39.8162 51.9656 36.0381C54.2922 33.7115 56.0425 31.7692 56.32 31.2355C56.7682 30.3604 56.7682 30.1042 56.7682 19.8373C56.7682 8.56721 56.7895 8.31107 57.8568 7.564C58.6039 7.05172 59.2869 7.1371 59.9913 7.86282Z" fill="#DC1F1D"/>
</svg>
