<svg width="301" height="226" viewBox="0 0 301 226" fill="none" xmlns="http://www.w3.org/2000/svg">
<path fill-rule="evenodd" clip-rule="evenodd" d="M21.1715 0.0624578C37.5082 -0.104142 53.8416 0.0625578 70.1715 0.562458C74.8235 3.54996 76.3235 7.71656 74.6715 13.0625C73.0345 15.3727 70.8675 16.8727 68.1715 17.5625C53.8382 17.8958 39.5048 18.2292 25.1715 18.5625C22.6715 19.7292 20.8382 21.5625 19.6715 24.0625C18.697 52.1243 19.0303 80.1245 20.6715 108.062C21.8382 109.229 23.0048 110.395 24.1715 111.562C45.5048 111.895 66.8385 112.229 88.1715 112.562C93.0805 115.046 95.0805 119.046 94.1715 124.562C90.2125 156.195 72.8795 176.528 42.1715 185.562C35.715 185.993 29.3817 186.993 23.1715 188.562C18.3741 192.831 17.8741 197.665 21.6715 203.062C22.574 204.263 23.7407 205.097 25.1715 205.562C63.1855 205.476 90.3525 188.309 106.671 154.062C108.876 147.116 110.876 140.116 112.671 133.062C113.338 97.0625 113.338 61.0625 112.671 25.0625C109.813 19.764 105.313 17.264 99.1715 17.5625C92.7085 11.8284 92.7085 6.16166 99.1715 0.562458C115.213 -1.00594 125.713 5.82736 130.671 21.0625C131.338 58.3958 131.338 95.7295 130.671 133.062C122.797 178.929 96.6305 208.429 52.1715 221.562C43.0067 222.658 33.84 223.824 24.6715 225.062C12.6748 222.738 4.6748 215.738 0.671495 204.062C-1.60211 191.882 1.89789 181.716 11.1715 173.562C13.5592 171.701 16.2259 170.368 19.1715 169.562C38.3387 170.074 54.172 163.241 66.6715 149.062C70.5585 143.623 73.0585 137.623 74.1715 131.062C56.5017 131.229 38.835 131.062 21.1715 130.562C10.9702 127.027 4.13689 120.194 0.671495 110.062C0.00479484 80.7295 0.00479484 51.3958 0.671495 22.0625C3.28109 10.6245 10.1145 3.29116 21.1715 0.0624578Z" fill="#FBE8E8"/>
<path fill-rule="evenodd" clip-rule="evenodd" d="M275.172 0.562472C246.841 0.0624716 218.507 -0.104128 190.172 0.0624716C185.355 2.05947 180.855 4.72617 176.672 8.06247C173.561 11.9494 171.228 16.2827 169.672 21.0625C168.711 51.4358 169.045 81.7695 170.672 112.062C174.263 121.321 180.763 127.487 190.172 130.562C207.502 131.062 224.835 131.229 242.172 131.062C242.334 133.089 242.167 135.089 241.672 137.062C236.198 150.536 226.698 160.036 213.172 165.562C204.526 167.041 195.859 168.374 187.172 169.562C178.116 173.62 172.283 180.453 169.672 190.062C167.535 208.812 175.535 220.479 193.672 225.062C251.689 221.707 287.022 191.707 299.672 135.062C300.648 96.0155 300.315 57.0159 298.672 18.0625C294.407 7.50627 286.573 1.67297 275.172 0.562472ZM275.172 18.5625C248.174 18.0625 221.174 17.8959 194.172 18.0625C191.865 19.5399 190.032 21.5399 188.672 24.0625C188.005 51.3958 188.005 78.7295 188.672 106.062C189.446 108.501 190.946 110.335 193.172 111.562C203.672 111.729 214.172 111.896 224.672 112.062C235.172 112.229 245.672 112.396 256.172 112.562C258.611 113.336 260.445 114.836 261.672 117.062C263.227 130.636 260.56 143.302 253.672 155.062C239.54 176.213 219.707 187.047 194.172 187.562C192.048 188.684 190.215 190.184 188.672 192.062C187.018 201.908 191.185 206.575 201.172 206.062C242.541 201.526 268.708 179.192 279.672 139.062C281.261 100.748 281.594 62.415 280.672 24.0625C279.505 21.5625 277.672 19.7292 275.172 18.5625Z" fill="#FBE8E8"/>
</svg>
