<svg width="226" height="226" viewBox="0 0 226 226" fill="none" xmlns="http://www.w3.org/2000/svg">
<path fill-rule="evenodd" clip-rule="evenodd" d="M184.171 18.0625C183.903 16.4635 184.237 15.1301 185.171 14.0625V0.0625H41.1711V17.0625H1.17109C-1.47701 51.2465 9.85629 79.7465 35.1711 102.562C45.8841 111.611 56.8841 120.277 68.1711 128.562C78.0871 141.814 89.9201 152.979 103.671 162.062C104.17 167.051 104.337 172.051 104.171 177.062C97.3491 176.686 90.6831 177.52 84.1711 179.562C65.5471 188.971 57.5471 204.138 60.1711 225.062H166.171C167.693 198.729 155.693 182.729 130.171 177.062H121.173H121.171C120.85 171.867 121.184 166.867 122.171 162.062C127.318 157.76 132.651 153.592 138.171 149.562C141.671 145.729 145.171 141.896 148.671 138.062C152.171 134.229 155.671 130.396 159.171 126.562C177.908 114.751 194.408 100.251 208.671 83.0625C221.829 63.4065 227.329 41.7401 225.171 18.0625H184.172H184.171ZM167.171 17.0625H59.1713C57.2763 43.8165 61.1103 69.8165 70.6713 95.0625C79.4973 116.389 93.3303 133.723 112.171 147.062C130.681 134.723 144.514 118.389 153.671 98.0625C162.89 71.9015 167.39 44.9015 167.171 17.0625ZM19.1719 34.0625H41.1719C42.6066 52.9355 45.1066 71.6015 48.6719 90.0625C30.6885 75.7655 20.8552 57.0985 19.1719 34.0625ZM182.172 54.0625C182.318 50.1755 182.985 46.5085 184.172 43.0625V34.0625H207.172C206.275 58.5465 195.608 77.2135 175.172 90.0625C178.776 78.3105 181.11 66.3105 182.172 54.0625ZM94.1719 194.562C92.9349 194.795 91.9349 195.295 91.1719 196.062C85.3759 198.189 81.7099 202.189 80.1719 208.062H145.172C142.889 200.733 137.889 196.4 130.172 195.062C118.346 193.902 106.346 193.736 94.1719 194.562Z" fill="#DC1E1C"/>
</svg>
