<svg width="90" height="86" viewBox="0 0 90 86" fill="none" xmlns="http://www.w3.org/2000/svg">
<path d="M38.193 11.1762V15.4952L33.9577 15.6088L29.6846 15.7225V22.3525V28.9824L33.9577 29.0961L38.193 29.2097V33.5287V37.8855H44.9997H51.8064V33.5287V29.2097L56.0795 29.0961L60.3148 28.9824V22.3525V15.7225L56.0795 15.6088L51.8064 15.4952V11.1762V6.81942H44.9997H38.193V11.1762ZM47.9493 15.0406L48.0627 19.3216H52.3736H56.7224V22.1251C56.7224 24.3225 56.6089 24.9666 56.1173 25.156C55.777 25.2696 53.8484 25.3833 51.8064 25.3833H48.0627L47.9493 29.6265L47.8358 33.9075H44.9997H42.1636L41.9745 29.5507L41.7854 25.1939H37.6257H33.4661L33.3526 22.2388L33.2392 19.3216H37.6257H41.9745V15.23C41.9745 12.9569 42.0501 11.0247 42.1636 10.911C42.277 10.8353 43.5627 10.7595 45.0753 10.7595L47.8358 10.7974L47.9493 15.0406Z" fill="#DC1A1A"/>
<path d="M15.1636 13.3357C12.0628 14.9269 12.1006 14.8132 12.1006 31.104V45.3868L15.8821 53.1533C17.962 57.3965 19.6636 60.9956 19.6636 61.1093C19.6636 61.2608 19.3611 61.3745 18.9451 61.3745C18.567 61.3745 18.0754 61.6018 17.8485 61.8291C17.4325 62.3974 12.1006 72.6264 12.1006 72.9295C12.1006 73.0432 26.9241 73.119 44.9998 73.119C63.1132 73.119 77.8989 73.0432 77.8989 72.9295C77.8989 72.5886 72.6048 62.3974 72.151 61.867C71.9241 61.6018 71.4325 61.3745 71.0544 61.3745C70.6384 61.3745 70.3359 61.2608 70.3359 61.1093C70.3359 60.9956 72.0376 57.3965 74.1174 53.1154L77.8989 45.3489V31.104C77.8989 14.8132 77.9367 14.9269 74.8359 13.3357C72.7939 12.2749 70.7897 12.4643 68.9367 13.8661C66.6678 15.6088 66.5544 16.1392 66.5544 25.1938V33.3392L65.609 33.1119C65.0796 32.9983 64.0208 32.9983 63.2267 33.1498C62.0544 33.3771 60.5418 34.6652 53.4325 41.7877L44.9998 50.1604L36.6048 41.7877C29.4578 34.6652 27.9451 33.3771 26.7729 33.1498C25.9788 32.9983 24.9199 32.9983 24.3905 33.1119L23.4451 33.3392V25.0802C23.4451 17.0864 23.4073 16.7454 22.6132 15.5331C20.6468 12.6538 17.962 11.8582 15.1636 13.3357ZM19.2099 17.1621C19.4746 17.5031 19.6636 21.6326 19.7393 29.2097L19.8527 40.7269L25.1468 48.7586C28.0586 53.1912 30.5922 56.8282 30.7813 56.8282C31.2351 56.8282 33.6552 55.1991 33.6552 54.896C33.6552 54.7445 31.3485 51.2212 28.5502 47.0538C25.7519 42.8864 23.4451 39.0978 23.4451 38.6811C23.4451 37.8855 24.7687 36.7489 25.6762 36.7489C26.5082 36.7489 41.9746 52.2441 42.5796 53.6837C42.8821 54.4035 43.109 56.222 43.109 58.1542V61.3745H33.6552H24.2014L20.0418 53.0397L15.8821 44.7049V31.1419C15.8821 21.1022 15.9956 17.4652 16.3359 17.1242C16.9409 16.5181 18.7183 16.556 19.2099 17.1621ZM73.6636 17.1242C74.004 17.4652 74.1174 21.1022 74.1174 31.1419V44.7049L69.9578 53.0397L65.7981 61.3745H56.3443H46.8905V58.1542C46.8905 56.222 47.1174 54.4035 47.4199 53.6837C48.025 52.2441 63.4914 36.7489 64.3233 36.7489C65.2309 36.7489 66.5544 37.8855 66.5544 38.6811C66.5544 39.0978 64.2477 42.8864 61.4494 47.0538C58.6132 51.259 56.3821 54.8582 56.4578 55.1234C56.6468 55.578 59.2561 57.0555 59.483 56.8282C59.8233 56.4494 69.4662 41.4467 69.8821 40.6511C70.1846 40.0828 70.3359 36.3701 70.3359 28.7172C70.3359 16.8212 70.3737 16.6696 72.2267 16.6696C72.7561 16.6696 73.3989 16.859 73.6636 17.1242ZM43.0334 67.1331L42.9199 69.141L30.7435 69.2168C22.2351 69.2546 18.5292 69.141 18.5292 68.8758C18.5292 68.6485 18.9451 67.7013 19.4746 66.7921L20.4578 65.163H31.8023H43.1468L43.0334 67.1331ZM70.4872 66.83C71.0166 67.7771 71.4704 68.6864 71.4704 68.8758C71.4704 69.1031 66.9704 69.2168 59.2939 69.2168L47.0796 69.141L46.9662 67.1331L46.8527 65.163H58.1972H69.504L70.4872 66.83Z" fill="#DC1A1A"/>
</svg>
