<svg width="78" height="74" viewBox="0 0 78 74" fill="none" xmlns="http://www.w3.org/2000/svg">
<path d="M54.8664 8.95589C54.0673 9.52512 54.0293 9.71486 54.0293 16.6974C54.0293 23.68 54.0673 23.8697 54.8664 24.439C55.5512 24.9323 56.9591 25.0461 62.2098 25.0461C70.3903 25.0461 70.5805 24.9702 70.3142 21.2892C69.8576 15.1415 65.3298 10.0943 59.0517 8.76614C56.3883 8.19691 55.8937 8.23486 54.8664 8.95589ZM62.3239 14.4964C63.922 15.5969 66.2049 18.9364 66.2049 20.1887C66.2049 20.7959 65.7483 20.8718 62.2098 20.8718H58.2147V16.7354V12.561L59.4703 12.9784C60.1171 13.2061 61.4108 13.8892 62.3239 14.4964Z" fill="#DC1A1A"/>
<path d="M26.5957 10.5498C26.2533 10.7016 22.9811 13.6995 19.2903 17.2667L12.5557 23.718V41.6677C12.5557 61.7426 12.5176 61.4011 15.1811 63.2226L16.5508 64.1334H32.0367H47.5606V62.2359V60.3385H33.1401C24.6552 60.3385 18.3011 60.1867 17.7303 59.959L16.7411 59.5795V43.2616V26.9436H22.182C29.2972 26.9436 28.9167 27.3231 28.9167 19.999V14.4205H35.1947H41.4728V12.5611C41.4728 11.119 41.3206 10.6636 40.8259 10.5498C39.6845 10.2462 27.2425 10.2462 26.5957 10.5498ZM24.7313 20.3026V22.7693H22.182H19.6328L22.0679 20.3026C23.3996 18.9364 24.5791 17.8359 24.6172 17.8359C24.6933 17.8359 24.7313 18.9364 24.7313 20.3026Z" fill="#DC1A1A"/>
<path d="M44.5928 15.597C41.701 16.7354 38.0864 20.1888 36.6786 23.2247C35.6893 25.3498 35.5752 26.0329 35.5752 29.2206C35.5752 32.4462 35.6893 33.0534 36.6786 35.1026C38.1625 38.1006 40.7118 40.5672 43.9459 42.1611C46.305 43.2995 46.9137 43.4513 49.6532 43.4134C53.7245 43.3754 56.3879 42.3508 59.2796 39.6565C62.0191 37.1139 63.3889 34.6852 63.9976 31.1939C64.6445 27.2852 64.4542 27.1334 58.8991 27.2093C56.5401 27.2093 53.9528 27.1713 53.1918 27.0575L51.7459 26.8677V21.2893C51.7459 17.4565 51.5937 15.559 51.2893 15.2554C50.5664 14.5344 46.8376 14.7621 44.5928 15.597ZM47.865 24.7047C47.941 29.2585 48.0932 30.2452 48.5879 30.6247C49.0445 30.9662 50.8708 31.118 54.4854 31.118C60.5352 31.118 60.4971 31.08 58.6328 34.3436C56.9206 37.3416 53.382 39.4288 49.9957 39.4667C40.4074 39.5426 35.6893 27.5888 42.8425 21.2893C44.3645 19.9611 46.4952 18.9365 47.3703 19.1262C47.5986 19.2021 47.7889 21.4411 47.865 24.7047Z" fill="#DC1A1A"/>
<path d="M22.8291 35.2923V37.1898H27.9657H33.1023V35.2923V33.3949H27.9657H22.8291V35.2923Z" fill="#DC1A1A"/>
<path d="M22.9052 45.6144L23.0193 47.6257L33.2164 47.7395L43.3754 47.8154V45.7283V43.6411H33.0642H22.791L22.9052 45.6144Z" fill="#DC1A1A"/>
<path d="M56.2358 46.5631C56.1217 47.5118 55.9314 47.6636 54.4856 47.8534C53.6104 47.9672 52.6592 48.2708 52.3929 48.5364C51.708 49.2195 51.7841 56.6195 52.469 57.4164C52.8875 57.9477 53.6865 58.0616 56.5402 58.0616C60.1168 58.0616 60.1168 58.0616 60.1168 59.0103C60.1168 59.8831 60.0026 59.959 58.2524 59.959C57.2631 59.959 55.3607 60.0728 54.067 60.1867L51.708 60.4523L51.8222 62.3877L51.9363 64.3231L54.1431 64.4369C56.1597 64.5508 56.3119 64.6267 56.3119 65.4616C56.3119 66.3344 56.4641 66.4103 58.2143 66.4103C59.9646 66.4103 60.1168 66.3344 60.1168 65.4995C60.1168 64.7405 60.3451 64.5887 61.7148 64.399C64.0358 64.0954 64.3022 63.4882 64.3022 58.9723C64.3022 54.0769 64.1119 53.8872 59.47 53.8872C56.35 53.8872 56.3119 53.8872 56.3119 52.9385V51.9898H60.307H64.3022V49.9026V47.8154H62.2095C60.1548 47.8154 60.1168 47.8154 60.1168 46.6769C60.1168 45.5764 60.0787 45.5385 58.2524 45.5385C56.4641 45.5385 56.35 45.6144 56.2358 46.5631Z" fill="#DC1A1A"/>
</svg>
