<svg width="68" height="65" viewBox="0 0 68 65" fill="none" xmlns="http://www.w3.org/2000/svg">
<path fill-rule="evenodd" clip-rule="evenodd" d="M35.4027 22.2043C34.7288 17.8786 32.1933 15.865 27.796 16.1637C26.3445 16.83 25.114 17.7994 24.1045 19.0721C22.5718 22.4509 23.2803 25.2474 26.2299 27.4619C31.2765 29.1626 34.334 27.41 35.4027 22.2043ZM31.2629 22.8756C31.4108 20.8986 30.4787 20.0037 28.4663 20.1909C26.9861 21.4859 26.9861 22.7909 28.4663 24.1061C29.7418 24.4563 30.6738 24.0462 31.2629 22.8756Z" fill="#DC1F1D"/>
<path fill-rule="evenodd" clip-rule="evenodd" d="M41.4418 20.1914C43.4609 20.2699 44.244 21.3141 43.7909 23.3236C39.4283 27.6862 35.0656 32.0489 30.703 36.4116C28.2538 37.398 27.2471 36.5404 27.6826 33.8387C32.2455 29.2385 36.8319 24.6894 41.4418 20.1914Z" fill="#DC201D"/>
<path fill-rule="evenodd" clip-rule="evenodd" d="M48.0406 36.0762C48.0853 30.9387 45.5125 28.4777 40.322 28.6932C39.4495 29.0563 38.6291 29.5409 37.861 30.1474C34.7595 33.6563 34.9832 36.9377 38.5322 39.9914C43.0718 42.0083 46.2412 40.703 48.0406 36.0762ZM43.7912 35.8525C44.2069 33.7693 43.3493 32.7254 41.2183 32.7203C40.7022 33.0507 40.2921 33.4982 39.9878 34.0626C39.8386 34.6593 39.8386 35.2558 39.9878 35.8525C41.247 37.317 42.5148 37.317 43.7912 35.8525Z" fill="#DC211E"/>
<path fill-rule="evenodd" clip-rule="evenodd" d="M36.7437 1.28633C36.1812 1.00611 35.5848 0.894249 34.9539 0.95074C24.9005 9.39865 14.8702 17.9002 4.86267 26.4555C4.27698 27.674 4.538 28.6807 5.64571 29.4758C9.05552 29.515 12.4487 29.6269 15.8253 29.8114C16.0116 32.6483 15.9743 35.482 15.7134 38.313C13.1498 39.161 11.5092 40.8763 10.7914 43.4587C7.73292 43.4214 4.67532 43.4587 1.61864 43.5706C1.13389 43.757 0.7983 44.0926 0.611869 44.5774C0.46271 50.9909 0.46271 57.4043 0.611869 63.8178C0.87289 64.2279 1.20848 64.5635 1.61864 64.8246C15.7134 64.9738 29.8082 64.9738 43.9029 64.8246C45.7471 64.5872 47.5369 64.1398 49.2723 63.4822C54.5187 60.8219 59.6644 57.9882 64.7095 54.9806C66.2225 54.009 67.1546 52.6293 67.506 50.8417C67.4094 46.273 65.0603 44.2221 60.4587 44.6892C58.695 45.4385 56.9052 46.0723 55.0892 46.5909C55.0519 40.9973 55.0892 35.4041 55.2011 29.8114C58.5776 29.6269 61.9708 29.515 65.3806 29.4758C66.5465 28.8955 66.9566 27.9632 66.6111 26.6793C62.8908 23.3661 59.0874 20.1594 55.2011 17.059L54.9774 2.06937C54.8733 1.74926 54.6867 1.48824 54.4181 1.28633C51.2322 0.921253 48.0255 0.846685 44.7978 1.0626L43.7911 2.06937C43.7832 3.74736 43.634 5.38804 43.3436 6.99135L36.7437 1.28633ZM45.0205 50.3942H45.6916C47.6826 50.089 49.5843 49.4923 51.3967 48.6044C51.3998 41.1277 51.5488 33.6702 51.8441 26.2317C52.0461 25.963 52.307 25.7764 52.6272 25.6724C54.7192 25.6348 56.8073 25.523 58.8915 25.3368C56.614 23.2461 54.2648 21.2326 51.8441 19.2962C51.5508 14.6179 51.4016 9.9196 51.3967 5.20145C50.187 4.98372 48.9565 4.90913 47.7052 4.97773C47.7423 7.29077 47.7052 9.6026 47.5933 11.9132C46.9754 13.0237 46.0433 13.5085 44.7967 13.3675C41.7637 11.0659 38.8552 8.60487 36.0714 5.9845C35.7732 5.83534 35.4747 5.83534 35.1765 5.9845C27.5401 12.3162 20.0079 18.7669 12.5801 25.3368C14.5897 25.523 16.6032 25.6348 18.6208 25.6724C19.0203 25.848 19.3559 26.1089 19.6275 26.4555C19.9566 30.2375 20.0685 34.0409 19.9631 37.8655C22.8874 37.4883 25.6467 37.9731 28.241 39.3197C29.3654 40.467 30.4841 41.5856 31.5969 42.6756C34.7393 42.696 37.8715 42.8452 40.9934 43.1231C43.7076 44.2607 45.05 46.3116 45.0205 49.2755V50.3942ZM24.6629 42.0048C22.5131 41.7007 20.3504 41.5889 18.1748 41.6692C16.6217 41.9155 15.4657 42.7357 14.7071 44.1302C14.5952 49.7229 14.5579 55.316 14.5952 60.9097C24.7425 61.0097 34.8847 60.8978 45.022 60.5741C46.9836 60.1687 48.8482 59.4975 50.6152 58.5605C54.3816 56.2669 58.1849 54.0296 62.0252 51.8487C62.5756 51.5225 63.0604 51.1125 63.4794 50.6182C63.7747 49.3819 63.2899 48.6362 62.0252 48.381L61.4324 48.6309C57.8277 50.1504 54.2219 51.6703 50.6152 53.1911C48.7321 53.9229 46.793 54.4449 44.7983 54.7572C38.8322 54.9064 32.8663 54.9064 26.9002 54.7572C25.6187 53.6922 25.4694 52.4991 26.4527 51.1776C30.8326 50.8847 35.2326 50.7355 39.6526 50.7301C41.4424 49.3877 41.4424 48.0454 39.6526 46.703L30.7035 46.4793C28.7428 45.713 27.1767 44.4452 26.0053 42.676L24.6629 42.0048ZM4.52653 47.4857H10.3434V60.9093H4.52653V47.4857Z" fill="#DC1E1D"/>
<path fill-rule="evenodd" clip-rule="evenodd" d="M45.0204 49.2759C45.0204 49.6488 45.0204 50.0216 45.0204 50.3945C45.2441 50.3945 45.4678 50.3945 45.6916 50.3945C45.4526 50.6035 45.1544 50.6782 44.7967 50.6182C44.7307 50.1182 44.8054 49.6708 45.0204 49.2759Z" fill="#F09C9B"/>
</svg>
