<svg width="67" height="64" viewBox="0 0 67 64" fill="none" xmlns="http://www.w3.org/2000/svg">
<path fill-rule="evenodd" clip-rule="evenodd" d="M36.2437 0.349806C35.6812 0.0695888 35.0848 -0.0422743 34.4539 0.0142166C24.4005 8.46212 14.3702 16.9637 4.36267 25.519C3.77698 26.7374 4.038 27.7442 5.14571 28.5393C8.55552 28.5785 11.9487 28.6903 15.3253 28.8749C15.5116 31.7118 15.4743 34.5455 15.2134 37.3765C12.6498 38.2244 11.0092 39.9397 10.2914 42.5222C7.23292 42.4849 4.17532 42.5222 1.11864 42.6341C0.633889 42.8204 0.2983 43.156 0.111869 43.6408C-0.0372896 50.0544 -0.0372896 56.4678 0.111869 62.8813C0.37289 63.2914 0.70848 63.627 1.11864 63.8881C15.2134 64.0373 29.3082 64.0373 43.4029 63.8881C45.2471 63.6507 47.0369 63.2033 48.7723 62.5457C54.0187 59.8854 59.1644 57.0517 64.2095 54.0441C65.7225 53.0725 66.6546 51.6928 67.006 49.9052C66.9094 45.3365 64.5603 43.2856 59.9587 43.7527C58.195 44.502 56.4052 45.1358 54.5892 45.6544C54.5519 40.0608 54.5892 34.4676 54.7011 28.8749C58.0776 28.6903 61.4708 28.5785 64.8806 28.5393C66.0465 27.959 66.4566 27.0267 66.1111 25.7427C62.3908 22.4296 58.5874 19.2229 54.7011 16.1225L54.4774 1.13285C54.3733 0.812741 54.1867 0.551719 53.9181 0.349806C50.7322 -0.0152706 47.5255 -0.0898385 44.2978 0.12608L43.2911 1.13285C43.2832 2.81084 43.134 4.45152 42.8436 6.05483L36.2437 0.349806ZM45.1916 49.4577L44.5206 49.4577H45.1918C44.9528 49.6667 44.6546 49.7414 44.2969 49.6814C44.2309 49.1815 44.3056 48.7341 44.5205 48.3393V48.3391C44.55 45.3751 43.2076 43.3242 40.4934 42.1866C37.3715 41.9087 34.2393 41.7595 31.0969 41.7391C29.9841 40.6491 28.8654 39.5305 27.741 38.3832C25.1467 37.0366 22.3874 36.5518 19.4631 36.929C19.5685 33.1044 19.4566 29.3011 19.1275 25.519C18.8559 25.1724 18.5203 24.9116 18.1208 24.7359C16.1032 24.6983 14.0897 24.5865 12.0801 24.4003C19.5079 17.8304 27.0401 11.3797 34.6765 5.04801C34.9747 4.89886 35.2732 4.89886 35.5714 5.04801C38.3552 7.66839 41.2637 10.1294 44.2967 12.431C45.5433 12.572 46.4754 12.0872 47.0933 10.9768C47.2052 8.66612 47.2423 6.35428 47.2052 4.04125C48.4565 3.97265 49.687 4.04724 50.8967 4.26497C50.9016 8.98311 51.0508 13.6814 51.3441 18.3597C53.7648 20.2961 56.114 22.3096 58.3915 24.4003C56.3073 24.5865 54.2192 24.6983 52.1272 24.7359C51.807 24.84 51.5461 25.0266 51.3441 25.2952C51.0488 32.7337 50.8998 40.1912 50.8967 47.6679C49.0843 48.5559 47.1826 49.1525 45.1916 49.4577ZM17.6748 40.7324C19.8504 40.6521 22.0131 40.7639 24.1629 41.068L25.5053 41.7392C26.6767 43.5084 28.2428 44.7762 30.2035 45.5425L39.1526 45.7662C40.9424 47.1086 40.9424 48.4509 39.1526 49.7933C34.7326 49.7987 30.3326 49.9479 25.9527 50.2408C24.9694 51.5623 25.1187 52.7554 26.4002 53.8204C32.3663 53.9696 38.3322 53.9696 44.2983 53.8204C46.293 53.5081 48.2321 52.9861 50.1152 52.2543C53.7219 50.7335 57.3277 49.2136 60.9324 47.6941L61.5252 47.4442C62.7899 47.6995 63.2747 48.4451 62.9794 49.6814C62.5604 50.1757 62.0756 50.5857 61.5252 50.9119C57.6849 53.0928 53.8816 55.3301 50.1152 57.6237C48.3482 58.5607 46.4836 59.2319 44.522 59.6373C34.3847 59.961 24.2425 60.0729 14.0952 59.9729C14.0579 54.3792 14.0952 48.7861 14.2071 43.1934C14.9657 41.7989 16.1217 40.9787 17.6748 40.7324ZM9.84342 46.5492H4.02653V59.9728H9.84342V46.5492Z" fill="#DC1F1D"/>
</svg>
