<svg width="224" height="227" viewBox="0 0 224 227" fill="none" xmlns="http://www.w3.org/2000/svg">
<path fill-rule="evenodd" clip-rule="evenodd" d="M106.172 1.06254C114.024 0.158342 121.357 1.65834 128.172 5.56254C158.735 36.1254 189.568 66.9587 220.672 98.0625C228.386 121.209 219.886 132.209 195.172 131.063C195.338 136.739 195.171 142.406 194.672 148.063C193.847 153.223 190.847 155.89 185.672 156.063C182.858 156.155 180.525 155.155 178.672 153.063C177.049 141.493 176.715 129.827 177.672 118.063C178.839 116.896 180.005 115.73 181.172 114.563C189.172 114.23 197.172 113.896 205.172 113.563C206.883 112.43 207.383 110.93 206.672 109.063C176.839 79.2292 147.005 49.3958 117.172 19.5625C114.172 17.5625 111.172 17.5625 108.172 19.5625C78.1035 48.6264 47.9371 78.4597 17.6725 109.063C16.9613 110.93 17.4613 112.43 19.1725 113.563C27.5058 113.896 35.8392 114.23 44.1725 114.563C45.6033 115.028 46.77 115.862 47.6725 117.063C48.794 122.624 49.294 128.29 49.1725 134.063C49.0058 139.063 48.8392 144.063 48.6725 149.063C47.7298 153.626 44.8965 155.959 40.1725 156.063C37.5612 156.007 35.3945 155.007 33.6725 153.063C32.2439 145.844 31.7439 138.51 32.1725 131.063C21.1507 133.22 11.6507 130.553 3.67249 123.063C-0.942913 114.702 -0.942913 106.369 3.67249 98.0625C34.3982 67.6713 65.2316 37.1713 96.1725 6.56254C99.4395 4.43284 102.772 2.59954 106.172 1.06254Z" fill="#DC1F1D"/>
<path fill-rule="evenodd" clip-rule="evenodd" d="M37.1719 169.063C45.6582 168.714 49.4916 172.714 48.6719 181.063C43.2531 188.973 37.9197 188.973 32.6719 181.063C32.0052 178.73 32.0052 176.396 32.6719 174.063C34.3792 172.526 35.8792 170.859 37.1719 169.063Z" fill="#DC211F"/>
<path fill-rule="evenodd" clip-rule="evenodd" d="M182.173 169.063C191.852 168.241 195.685 172.574 193.673 182.063C190.925 186.182 187.092 187.682 182.173 186.563C177.518 183.666 176.018 179.5 177.673 174.063C178.698 171.876 180.198 170.209 182.173 169.063Z" fill="#DD2320"/>
<path fill-rule="evenodd" clip-rule="evenodd" d="M145.672 129.063C137.791 109.566 123.291 101.567 102.172 105.063C91.8814 108.978 84.3814 115.978 79.6724 126.063C76.0354 138.883 78.2024 150.549 86.1724 161.063C67.7708 170.299 56.2708 184.966 51.6724 205.063C50.831 214.9 54.9977 221.732 64.1724 225.563C95.8394 226.23 127.505 226.23 159.172 225.563C170.703 220.667 174.87 212.167 171.672 200.063C165.722 182.611 154.555 169.611 138.172 161.063C145.689 151.652 148.189 140.984 145.672 129.063ZM127.671 145.062C130.195 129.085 123.362 121.419 107.171 122.062C102.605 124.124 99.1049 127.458 96.6709 132.062C93.7169 142.305 96.8829 149.805 106.171 154.562C115.959 156.977 123.126 153.81 127.671 145.062ZM109.485 208.055C110.379 208.06 111.275 208.062 112.172 208.063L154.172 206.063L154.172 206.063C153.536 201.782 152.036 197.782 149.672 194.063C132.805 171.387 111.971 166.887 87.1719 180.563C78.3619 187.031 72.6949 195.531 70.1719 206.063C82.9688 207.312 96.0732 207.976 109.485 208.055Z" fill="#DC1E1C"/>
</svg>
