<svg width="62" height="61" viewBox="0 0 62 61" fill="none" xmlns="http://www.w3.org/2000/svg">
<path fill-rule="evenodd" clip-rule="evenodd" d="M32.4223 5.98634C32.4494 6.01645 32.4757 6.04621 32.5013 6.07566C32.7269 6.11168 32.9725 6.17769 33.2751 6.271C33.9316 7.25805 33.937 7.74724 33.9497 8.89133L33.9505 8.96113L33.9749 9.93987L33.9749 9.93994C33.908 10.3951 33.8753 10.618 33.7901 10.8186C33.7084 11.011 33.5785 11.183 33.3239 11.5199C33.036 11.7306 32.8823 11.8431 32.7102 11.9013C32.5131 11.9681 32.292 11.9636 31.8175 11.9541C31.4413 11.8312 31.2382 11.7648 31.0731 11.6457C30.8794 11.5059 30.7381 11.2935 30.431 10.8318C30.3957 10.4279 30.3769 10.2128 30.3673 9.99734C30.3564 9.75174 30.3575 9.5056 30.3599 8.97895L30.3555 7.99019V7.99018V7.99015C30.3902 7.59249 30.409 7.37785 30.4746 7.17862C30.5515 6.94499 30.6928 6.73255 30.9998 6.271L31.0538 6.25314C31.535 6.09245 31.731 6.02841 31.932 6.00288C32.0651 5.98597 32.2003 5.98596 32.422 5.98596H32.4223V5.98634ZM48.6332 12.6285C48.7826 12.7673 48.9247 12.9809 49.2016 13.3972L49.2016 13.3972C49.2338 13.5359 49.2601 13.6495 49.2807 13.7482C49.3103 13.854 49.3407 13.9818 49.3796 14.1454C49.3624 14.2383 49.3425 14.3288 49.3198 14.4172C49.3 14.585 49.2606 14.7942 49.2017 15.1072L49.2016 15.1074L49.2016 15.1075C48.9995 15.3752 48.7957 15.6381 48.5833 15.8882C48.1412 16.4507 47.5632 16.9213 46.9266 17.3878L46.9264 17.3879C46.5984 17.4894 46.4129 17.5468 46.2533 17.5835C46.2286 17.5913 46.2037 17.5988 46.1787 17.6061L46.0995 17.6139C45.9487 17.6388 45.7861 17.6512 45.5047 17.6729L45.5046 17.6729L45.464 17.6406C45.3141 17.6252 45.1554 17.5855 44.8644 17.5126C44.648 17.3344 44.5257 17.2337 44.4361 17.1094C44.3197 16.9479 44.2585 16.7465 44.1179 16.2833C44.102 15.8866 44.1058 15.6065 44.1507 15.3582C44.1704 15.205 44.2132 15.0405 44.2838 14.8503C44.3314 14.7728 44.3796 14.6986 44.4284 14.6273C44.491 14.5138 44.5647 14.3909 44.6511 14.2523L44.6513 14.2522L44.6514 14.2521C44.925 13.9822 45.0662 13.8429 45.214 13.7111C45.3715 13.5706 45.5365 13.4385 45.8774 13.1658L45.8776 13.1656L45.8776 13.1656L46.532 12.6256C46.874 12.4398 47.0437 12.3477 47.225 12.3061C47.4035 12.2652 47.5931 12.2733 47.9696 12.2893C48.1576 12.361 48.2923 12.4123 48.4018 12.4686L48.6332 12.542V12.6285ZM42.0024 18.1795C42.0964 18.2701 42.1894 18.3612 42.2812 18.4528L42.3762 18.5281L42.3596 18.5314C45.3609 21.5552 47.1718 25.1404 47.2994 29.4489C47.241 32.2497 46.509 34.7502 45.2167 37.0223L45.2203 37.0561C44.59 38.3765 43.6511 39.5437 42.589 40.5822L42.5138 40.6637L42.4568 40.7249C42.3415 40.8326 42.2263 40.9353 42.1106 41.0343C41.5522 41.545 40.969 42.0231 40.3854 42.472L39.9617 42.6135C39.7665 42.7887 39.6311 42.9673 39.5192 43.2235C39.4901 43.6145 39.4585 44.0053 39.4259 44.396L39.3659 45.1576C39.3014 45.5597 39.2723 45.7418 39.2122 45.913C39.1624 46.0548 39.0915 46.1891 38.9618 46.4346C38.9138 46.5363 38.872 46.6324 38.8357 46.7251C38.7172 47.0717 38.6473 47.431 38.6069 47.7969C38.5986 47.927 38.5942 48.0652 38.5915 48.2163L38.5699 48.8872C38.5663 49.053 38.5628 49.2188 38.5595 49.3846L38.5617 49.5301C38.5653 49.7701 38.5689 50.009 38.5673 50.2451C38.5566 50.6026 38.5289 50.931 38.4811 51.2379C38.3867 52.082 38.1604 52.7702 37.5417 53.5888C37.5303 53.566 37.5195 53.5436 37.5091 53.5215C37.2929 53.8066 37.0384 54.0924 36.7409 54.3905C36.4787 54.5332 36.327 54.6157 36.166 54.6715C36.1074 54.6917 36.0477 54.7085 35.9809 54.7233C35.847 54.7808 35.7004 54.8291 35.5368 54.8682C35.084 54.9221 34.6292 54.9593 34.1742 54.9914C34.1666 54.9948 34.1591 54.9984 34.1517 55.002C34.1437 55.0059 34.1358 55.0099 34.128 55.014C33.911 55.1283 33.7429 55.3354 33.4096 55.7494L33.2749 56.1542C33.0734 56.2153 32.9251 56.2602 32.7986 56.2943C32.752 56.3236 32.7064 56.3472 32.6589 56.3664C32.4666 56.4441 32.2447 56.4485 31.8172 56.4571L31.8172 56.4571L31.8171 56.457L31.7424 56.4294L31.5685 56.4393L31.3977 56.2978C31.2188 56.2252 31.1042 56.1663 31.0061 56.087C30.8759 55.9818 30.7747 55.8407 30.5907 55.5841L30.5523 55.5224L30.5196 55.4702C30.4193 55.3519 30.3032 55.2081 30.1465 55.014V55.0137L30.1387 55.0089C29.9622 54.9014 29.7226 54.8976 29.2042 54.8893C28.9905 54.8566 28.8001 54.8194 28.6273 54.776C28.4334 54.7627 28.2922 54.7313 28.1619 54.6747C28.0526 54.6272 27.951 54.5621 27.8325 54.4751C27.368 54.2219 26.9988 53.8547 26.4491 53.3037C25.7118 52.2692 25.7986 51.031 25.8842 49.8095L25.8842 49.8094C25.9006 49.5751 25.917 49.3414 25.9275 49.1099C25.9623 47.7417 25.7975 47.0589 25.0271 45.8925C25.0044 45.5527 24.993 45.382 24.9907 45.2113C24.9884 45.0393 24.9953 44.8672 25.0092 44.5221L25.0092 44.5217L25.0093 44.5212L25.0093 44.5209L25.0093 44.5207C24.9395 43.5543 24.8565 43.1625 24.1838 42.4508C23.6897 42.0746 23.1898 41.706 22.6852 41.344C21.8388 40.7174 21.1171 40.0362 20.4899 39.2981L20.4772 39.3365L20.4769 39.3362L20.4768 39.3364L20.1963 38.94C19.8801 38.5399 19.589 38.1238 19.3185 37.6915C18.2365 36.1352 17.849 35.469 17.7102 34.7544C17.6787 34.5919 17.66 34.4269 17.6489 34.2484L17.6326 34.2056L17.4026 33.6133C16.4068 30.4469 16.9213 27.0399 18.1269 23.9961L18.2016 23.6589L18.2293 23.7422C18.4482 23.2102 18.6877 22.6899 18.9435 22.1847C21.1739 18.4725 24.3468 16.155 28.4399 14.8224C28.5974 14.788 28.7551 14.756 28.9131 14.7264C30.1292 14.4158 31.4411 14.3733 32.7378 14.4794C33.8764 14.5434 35.0033 14.7295 36.097 15.0342C36.2003 15.0583 36.3027 15.0828 36.4041 15.1075L36.3973 15.1211C38.4356 15.7329 40.3507 16.7602 42.0024 18.1795ZM34.1078 18.1794C34.7176 18.2452 35.2994 18.3685 35.8557 18.5419C36.386 18.8961 36.919 19.2462 37.4558 19.5903L38.3057 20.1314C38.8093 20.4522 39.3129 20.7729 39.8166 21.0935L39.9354 20.9745C40.0116 21.0439 40.0872 21.1142 40.1622 21.1854C40.3026 21.3927 40.4233 21.5575 40.5413 21.6948C41.3709 22.8678 42.0455 24.0656 42.6835 25.3858L42.9446 25.9392L43.0781 25.8055C43.2701 26.4347 43.4056 27.0762 43.4938 27.7293C43.4719 28.1203 43.4497 28.5113 43.4269 28.9022L43.3897 29.538C43.3652 29.9832 43.3384 30.4248 43.3047 30.865C43.2184 31.8441 43.0606 32.7845 42.6684 33.738L42.3585 34.4194L42.0463 35.1098L41.8075 35.6309L41.9866 35.7206C41.8577 35.9265 41.7225 36.1282 41.5813 36.3258C41.5635 36.2851 41.544 36.2436 41.5227 36.2009C40.8104 37.0781 40.1002 37.9318 39.3008 38.7307L38.9616 39.061C38.7841 39.2038 38.6027 39.3439 38.4174 39.4812L37.8252 39.9065C36.5425 40.8639 36.2995 41.5753 36.0477 43.1133C35.9811 43.6602 35.9112 44.2068 35.8344 44.7523L35.8344 44.7524C35.707 44.9074 35.6347 44.9954 35.5417 45.0424C35.4194 45.1042 35.2614 45.0951 34.8956 45.0743L34.0391 45.0752L33.1126 45.0764L32.1371 45.073L31.1617 45.0764L30.2352 45.0752C29.7314 45.0747 29.2273 45.0657 28.7243 45.0374C28.5746 44.911 28.4869 44.837 28.4338 44.7434C28.3587 44.6112 28.3525 44.4398 28.3377 44.0264L28.2266 43.1133C27.9748 41.5753 27.7318 40.8639 26.4491 39.9065C26.1011 39.6492 25.7656 39.3905 25.443 39.1282L25.5962 39.0514C24.7421 38.3546 23.9102 37.6599 23.1298 36.8822C22.049 35.5804 21.2433 34.0882 20.761 32.2103C20.5403 30.3689 20.5382 28.6823 20.8653 27.0795H21.0461L21.0783 26.9728C21.4336 25.8148 21.8983 24.7623 22.4422 23.6873C22.6799 23.2919 22.9513 22.9041 23.268 22.5187L23.2681 22.5187C23.5672 22.1824 23.7003 22.0328 23.8224 21.8748C23.9202 21.7482 24.011 21.6162 24.1746 21.3785L24.1746 21.3785L24.1152 21.1998C24.5051 20.8355 24.9036 20.5086 25.3115 20.2165V20.2383L25.8514 20.009L26.5558 19.7039C27.2432 19.4086 27.6975 19.2015 28.2073 18.7482C29.9853 18.1659 31.9356 18.0284 34.1078 18.1794ZM30.5017 51.345C30.5728 51.3458 30.644 51.3462 30.7151 51.3463L30.7159 51.3463L31.4091 51.3474L32.1371 51.344L32.1379 51.344L32.8667 51.3474L33.5592 51.3463L33.5599 51.3463L34.1991 51.3453L34.1998 51.3453L34.204 51.3454L34.2044 51.3454C34.2858 51.3482 34.3541 51.3505 34.4124 51.3509C34.4541 51.3512 34.4907 51.3506 34.5235 51.3485C34.5939 51.344 34.6466 51.3328 34.6937 51.3101C34.7826 51.267 34.8514 51.1826 34.9812 51.0234L34.9812 51.0232C35.0026 50.7728 35.014 50.6398 35.019 50.5066C35.0246 50.356 35.0221 50.205 35.0167 49.8834V49.8834V49.8834V49.8833V49.8832L35.019 49.2596C35.0287 48.9796 35.0333 48.8496 34.983 48.7463C34.9394 48.6569 34.8548 48.5875 34.6968 48.458C34.413 48.4369 34.1284 48.4265 33.8438 48.4223C33.7491 48.4209 33.6545 48.4202 33.5599 48.4201L33.5592 48.4201L32.8659 48.419L32.1379 48.4223L32.1371 48.4223L31.4084 48.419L30.7159 48.4201L30.7151 48.4201L30.076 48.421L30.0752 48.4211C29.9914 48.4182 29.9215 48.4159 29.8619 48.4154C29.8202 48.4151 29.7836 48.4158 29.7508 48.4179C29.6808 48.4224 29.6283 48.4336 29.5814 48.4563C29.4925 48.4993 29.4236 48.5838 29.2938 48.743C29.2724 48.9935 29.2611 49.1265 29.2561 49.2597C29.2504 49.4104 29.2529 49.5613 29.2583 49.8829V49.8829V49.883V49.8831V49.8832L29.2561 50.5067C29.2463 50.7868 29.2418 50.9168 29.2921 51.02C29.3356 51.1095 29.4203 51.1789 29.5783 51.3084C29.8854 51.3312 30.1936 51.3416 30.5017 51.345ZM34.5807 20.9765C36.7769 21.7311 38.7203 23.2302 39.9397 25.214C40.0328 25.3354 40.1002 25.4447 40.1556 25.5598C40.2438 25.7429 40.3018 25.9406 40.385 26.2242L40.385 26.2243L40.3851 26.2243C40.3696 26.523 40.3587 26.7353 40.3453 26.9095C40.3275 27.3062 40.2366 27.7151 40.101 28.2196C39.6253 28.5375 39.4148 28.6781 39.183 28.7496C38.9991 28.8063 38.8018 28.8195 38.4479 28.8431C38.1873 28.7458 37.9845 28.6579 37.8184 28.5664L37.541 28.5047L37.654 28.4669C37.4585 28.3361 37.3177 28.1903 37.1771 27.9965L36.9724 27.9346C36.4452 27.224 36.2437 26.9525 36.1668 26.6493C36.1482 26.5761 36.1368 26.5011 36.1299 26.4176C35.476 25.6042 34.7432 25.1352 33.5597 24.799C32.8258 24.7004 32.1092 24.6399 31.369 24.6198C30.8689 24.5388 30.5288 24.407 30.203 24.1852C30.1805 24.1735 30.1586 24.1613 30.137 24.1484C29.9619 24.0435 29.8131 23.8945 29.5781 23.6589L29.578 23.6585C29.4883 23.1301 29.4625 22.7368 29.5315 22.351C29.5397 22.2257 29.5566 22.1214 29.5844 22.02C29.6355 21.8334 29.7235 21.657 29.8625 21.3785L29.8871 21.3908C29.9076 21.3518 29.9291 21.3121 29.9514 21.2716C31.3877 20.4011 32.988 20.613 34.5807 20.9765ZM53.3401 27.7787L52.7568 27.7921C52.6847 27.7904 52.6137 27.7885 52.5438 27.7866C51.9825 27.7715 51.49 27.7583 51.0258 27.8944C50.8475 27.9237 50.7253 27.9571 50.6146 28.0133C50.4638 28.09 50.3345 28.2089 50.1142 28.4175C50.0996 28.4307 50.0851 28.4442 50.0706 28.4579C49.8184 28.9765 49.718 29.4004 49.7071 29.8675C49.7036 30.0178 49.7093 30.1725 49.7222 30.3363C49.7334 30.4781 49.75 30.6267 49.7706 30.7851C50.663 31.3814 51.1259 31.4356 52.1736 31.447L52.7568 31.4442C53.4926 31.4618 54.1514 31.4327 54.8899 31.3552L54.8899 31.3552L54.89 31.3551C55.1932 31.1415 55.3302 31.045 55.4415 30.9247C55.5333 30.8256 55.6076 30.7103 55.7431 30.5001L55.7431 30.5C55.8703 29.6714 55.8147 29.2196 55.4431 28.468C54.7622 27.8116 54.2672 27.786 53.3401 27.7787ZM11.6607 27.8277L12.7272 27.8032C13.2326 27.875 13.4616 27.9076 13.6561 28.0075C13.8172 28.0903 13.9546 28.2195 14.2059 28.4557C14.627 29.3281 14.4787 29.8686 14.2203 30.785C13.569 31.4378 13.1548 31.4403 12.3329 31.4454C12.2669 31.4458 12.1983 31.4462 12.1267 31.447L11.5363 31.4442L10.9491 31.4581C10.1191 31.4589 9.52708 31.4481 8.82221 30.9854C8.71694 30.8092 8.64988 30.6969 8.60888 30.5768L8.53223 30.5L8.55458 30.245C8.54718 30.0737 8.55529 29.8421 8.56781 29.4845C8.59691 29.3699 8.62861 29.2633 8.6629 29.1641C8.71136 28.8037 8.7642 28.6313 8.86089 28.4887C8.9209 28.4001 8.9978 28.3231 9.10103 28.2196L9.13445 28.3536C9.64656 27.8397 10.3971 27.8354 11.372 27.8298C11.4662 27.8292 11.5624 27.8287 11.6607 27.8277ZM49.2023 44.1822C48.3018 43.0211 47.3859 42.058 45.985 41.5812C45.6548 41.5966 45.4673 41.6053 45.292 41.6562C45.0846 41.7165 44.8943 41.8357 44.5052 42.0949L44.3674 42.1869L44.3674 42.1871C44.2046 42.5868 44.1164 42.8035 44.0754 43.0288C44.0269 43.2953 44.0445 43.5739 44.083 44.1819L44.083 44.1822L44.0831 44.1823C44.7415 45.1358 45.4145 45.9139 46.304 46.4354C46.4124 46.5418 46.5247 46.6459 46.642 46.7476C46.803 46.7659 46.9404 46.7814 47.0606 46.7943C47.2759 46.8746 47.5033 46.9424 47.7447 46.9971L47.7448 46.9971C48.0805 46.9029 48.2894 46.8442 48.45 46.7732L48.6328 46.7476V46.6735C48.7972 46.5631 48.9386 46.4036 49.2023 46.1063L49.2023 46.1063C49.3451 45.7127 49.4241 45.4543 49.4384 45.2116C49.4419 45.1965 49.445 45.1814 49.4477 45.1662C49.4697 45.0402 49.462 44.9089 49.4507 44.7167C49.3764 44.5571 49.3243 44.4452 49.265 44.3515C49.2457 44.2979 49.2248 44.2416 49.2023 44.1822ZM20.1013 42.7109C19.9996 42.481 19.8442 42.2335 19.6236 41.9019C17.4133 41.348 16.4253 42.5005 15.0731 44.1822C14.8438 45.4006 14.9543 45.7139 15.6419 46.7477L15.642 46.7477C16.1886 46.8818 16.3922 46.9318 16.5981 46.9457C16.7203 46.954 16.8434 46.9496 17.0395 46.9425C18.3742 46.5041 19.4042 45.309 20.1924 44.1822C20.2072 44.0799 20.2197 43.9848 20.2296 43.8958C20.2604 43.7767 20.2846 43.6315 20.3174 43.4341L20.3174 43.434L20.3174 43.434C20.2597 43.1199 20.2287 42.9515 20.1553 42.8043C20.1395 42.7726 20.1217 42.7419 20.1013 42.7109ZM17.153 12.4351L17.1656 12.4416L17.2066 12.4529C17.325 12.5152 17.4329 12.5768 17.5325 12.639C18.5205 13.1952 19.3562 13.8792 20.0325 14.8224C20.2517 15.6032 20.181 16.0558 19.9081 16.8177C19.6568 17.0876 19.5324 17.2212 19.3885 17.3286C19.3724 17.3406 19.3561 17.3522 19.3394 17.3637V17.3878L19.2451 17.4239C19.131 17.4922 18.9876 17.5641 18.7707 17.6728L18.7706 17.6729L18.7705 17.6729C18.6578 17.6634 18.5495 17.6504 18.4453 17.6341C18.313 17.647 18.1476 17.6578 17.9174 17.6729C17.7279 17.5537 17.5524 17.4293 17.385 17.2996C16.7135 16.9601 16.2011 16.4203 15.5737 15.7592L15.5737 15.7592L15.5321 15.7154L15.5321 15.7154L15.532 15.7154C15.3578 15.4845 15.2497 15.3413 15.173 15.2007L15.0736 15.1074C15.0641 15.0308 15.0554 14.9574 15.0477 14.8869C15.0002 14.7195 14.9593 14.5022 14.8955 14.1633L14.8955 14.1632L14.8955 14.1632C14.973 13.8295 15.0167 13.6411 15.0884 13.4641C15.1085 13.4143 15.1309 13.3654 15.1569 13.3144C15.2071 13.1586 15.273 12.9979 15.3582 12.8271C15.3744 12.8514 15.3902 12.8756 15.4057 12.8996C15.4715 12.7985 15.5492 12.6817 15.642 12.5422L15.6421 12.542C16.1231 12.3813 16.3329 12.3112 16.5423 12.3126C16.7043 12.3136 16.8661 12.3574 17.153 12.4351ZM39.1851 31.5745C39.0299 31.5213 38.8313 31.4743 38.5542 31.4086L38.5541 31.4086C38.265 31.3933 38.0584 31.3824 37.8909 31.3879C37.7892 31.3782 37.6744 31.3675 37.541 31.3552L37.7229 31.4008C37.6675 31.4079 37.6155 31.4182 37.5645 31.4321C37.4089 31.4746 37.2626 31.5516 37.0567 31.6822L36.9729 31.6402L36.9726 31.6404L36.9721 31.6402C36.9599 31.6524 36.9482 31.6642 36.9369 31.6756C36.9257 31.6869 36.915 31.6979 36.9046 31.7086L36.69 31.9237L36.7766 31.8667C36.7686 31.8796 36.7609 31.893 36.7535 31.907L36.6877 31.9252L36.6877 31.9253L36.6876 31.9256L36.6875 31.9259C36.5636 32.4142 36.5014 32.659 36.4658 32.9077C36.43 33.1577 36.4211 33.4116 36.4033 33.9206C36.4932 34.0849 36.5564 34.2003 36.6152 34.2893C36.6421 34.3498 36.6724 34.4109 36.7062 34.4729C36.8148 34.5325 36.9019 34.5804 36.9786 34.6195C37.0528 34.6637 37.1429 34.7133 37.2565 34.7757L37.2565 34.7757C37.3933 34.79 37.5197 34.8021 37.6379 34.8114C37.7653 34.8277 37.9224 34.8437 38.1283 34.8648C38.5539 34.8194 38.7627 34.7971 38.9404 34.7108C38.9853 34.689 39.0282 34.6631 39.0721 34.6317C39.2934 34.5345 39.5308 34.3963 39.8162 34.2056L39.8162 34.2056L39.8166 34.204C39.9315 33.7878 39.9891 33.5788 40.0247 33.366C40.0605 33.1515 40.0738 32.9333 40.1006 32.4953C39.988 32.3261 39.8977 32.1904 39.8177 32.0797C39.7446 31.9601 39.651 31.8194 39.5329 31.6418L39.5327 31.6414L39.532 31.6405L39.5318 31.6402C39.401 31.6153 39.2868 31.5936 39.1851 31.5745ZM37.0567 31.6822L38.0916 31.4931L38.1741 31.5138L37.2373 31.7731L37.0564 31.6824L37.0567 31.6822ZM38.5542 31.4086L38.4211 31.4454L38.381 31.4402L38.5542 31.4086Z" fill="#DC1A1A"/>
</svg>
