<svg width="225" height="227" viewBox="0 0 225 227" fill="none" xmlns="http://www.w3.org/2000/svg">
<path fill-rule="evenodd" clip-rule="evenodd" d="M176.673 54.0625C165.484 16.7338 140.318 -0.932793 101.173 1.06251C84.5116 4.98851 70.6785 13.6552 59.6725 27.0625C38.8478 61.7725 43.6811 92.4385 74.1725 119.062C53.1405 127.575 35.6401 140.908 21.6725 159.062C6.95925 178.896 -0.207352 201.229 0.172546 226.062H17.1725C17.3917 196.294 28.8917 171.962 51.6725 153.062C55.0795 156.88 58.2465 160.88 61.1725 165.062C53.1965 175.54 45.0296 185.872 36.6725 196.062C34.9216 197.775 34.255 199.775 34.6725 202.062C40.0421 207.432 45.3744 212.764 50.6692 218.059L58.1725 225.562C66.1725 226.229 74.1725 226.229 82.1725 225.562C73.2905 217.182 64.9565 208.348 57.1725 199.062C65.5395 187.704 73.8725 176.37 82.1725 165.062C77.3295 158.044 72.6625 150.878 68.1725 143.562C68.3175 142.79 68.6505 142.124 69.1725 141.562C79.0495 135.794 89.7155 132.628 101.173 132.062C96.4265 154.215 91.0936 176.215 85.1725 198.062C93.8395 207.396 102.84 216.396 112.173 225.062C121.506 216.396 130.506 207.396 139.173 198.062C133.252 176.215 127.919 154.215 123.173 132.062C134.395 133.303 145.061 136.469 155.173 141.562C155.695 142.124 156.028 142.79 156.173 143.562C151.683 150.878 147.016 158.044 142.173 165.062C150.473 176.37 158.806 187.704 167.173 199.062C159.389 208.348 151.055 217.182 142.173 225.562C150.173 226.229 158.173 226.229 166.173 225.562L189.673 202.062C190.091 199.775 189.424 197.775 187.673 196.062C179.316 185.872 171.149 175.54 163.173 165.062L172.173 153.062C195.074 171.872 206.408 196.206 206.173 226.062H224.173C224.339 220.387 224.172 214.72 223.673 209.062C215.153 166.04 190.653 136.04 150.173 119.062C171.145 102.439 179.978 80.7725 176.673 54.0625ZM124.171 112.062C142.654 106.745 154.154 94.7455 158.671 76.0625C161.928 52.078 153.095 34.2446 132.171 22.5625C99.1324 12.3318 76.9655 23.4985 65.6715 56.0625C62.5925 85.9245 75.4255 104.924 104.171 113.062H104.172C106.818 113.727 109.651 114.061 112.672 114.062C116.805 114.277 120.638 113.611 124.172 112.062H124.171ZM111.172 164.062C112.603 164.443 113.436 165.443 113.672 167.062C115.398 175.087 117.232 183.087 119.172 191.062C119.088 191.562 119.005 192.062 118.922 192.562C118.839 193.062 118.755 193.562 118.672 194.062C116.496 196.437 114.329 198.77 112.172 201.062C108.761 198.656 106.094 195.656 104.172 192.062L106.473 182.859L106.788 181.599C108.251 175.747 109.712 169.901 111.172 164.062Z" fill="#DC1E1D"/>
</svg>
