<?xml version="1.0" standalone="no"?>
<!DOCTYPE svg PUBLIC "-//W3C//DTD SVG 20010904//EN"
 "http://www.w3.org/TR/2001/REC-SVG-20010904/DTD/svg10.dtd">
<svg version="1.0" xmlns="http://www.w3.org/2000/svg"
 width="512.000000pt" height="512.000000pt" viewBox="0 0 512.000000 512.000000"
 preserveAspectRatio="xMidYMid meet">

<g transform="translate(0.000000,512.000000) scale(0.100000,-0.100000)"
fill="#000000" stroke="none">
<path d="M261 4998 c-81 -23 -157 -101 -180 -184 -7 -26 -11 -233 -11 -620 0
-668 -2 -653 80 -734 60 -60 119 -80 242 -80 75 0 91 3 108 20 24 24 25 49 6
76 -12 16 -30 20 -118 24 -85 4 -108 9 -134 27 -66 47 -65 29 -62 682 3 578 3
590 24 618 11 15 36 36 55 45 32 17 100 18 989 18 889 0 957 -1 989 -18 19 -9
44 -30 55 -45 21 -28 21 -40 24 -620 2 -549 1 -595 -15 -626 -34 -65 -59 -75
-207 -81 -118 -5 -138 -9 -189 -33 -88 -44 -135 -111 -158 -228 -7 -35 -14
-66 -16 -68 -2 -3 -15 6 -29 20 -33 31 -70 104 -89 175 -35 135 -32 134 -450
134 -322 0 -336 -1 -355 -20 -25 -25 -25 -55 0 -80 19 -19 33 -20 348 -20
l329 0 17 -61 c36 -132 122 -246 221 -294 44 -22 56 -24 78 -14 32 14 36 24
47 117 12 93 25 139 49 179 34 55 70 67 221 73 147 7 177 16 238 74 19 17 43
49 55 71 22 40 22 46 25 649 3 696 5 674 -77 756 -85 85 -16 80 -1110 79 -601
0 -979 -5 -1000 -11z"/>
<path d="M3521 4665 c-377 -85 -656 -346 -762 -713 -32 -110 -41 -235 -30
-388 17 -218 18 -208 -31 -221 -57 -16 -111 -62 -139 -119 -31 -66 -31 -167 2
-230 l24 -46 -56 -56 c-62 -64 -112 -156 -129 -237 l-11 -55 -52 0 c-140 -1
-281 -114 -323 -258 -9 -30 -25 -63 -35 -73 -26 -26 -24 -55 6 -83 14 -13 25
-30 25 -39 0 -9 15 -45 34 -81 27 -51 35 -82 41 -145 l7 -81 -59 0 c-96 0 -94
7 -92 -285 l1 -248 -34 -14 c-43 -18 -85 -59 -108 -104 -25 -49 -81 -95 -132
-111 -34 -10 -42 -10 -46 1 -2 7 -13 22 -23 32 -18 18 -42 19 -454 19 -422 0
-436 -1 -455 -20 -19 -19 -20 -33 -20 -490 0 -457 1 -471 20 -490 19 -19 33
-20 455 -20 422 0 436 1 455 20 15 15 20 33 20 70 l0 50 48 0 c67 0 148 -23
244 -70 124 -60 186 -70 447 -70 207 0 228 2 267 21 68 32 108 120 85 182 -9
24 -7 33 19 69 22 30 30 52 30 85 l0 43 1093 0 c973 0 1095 2 1115 16 22 15
22 16 22 317 0 238 -3 315 -15 361 -32 123 -102 227 -204 303 -45 34 -108 61
-323 139 -148 53 -268 98 -268 99 0 1 26 12 58 24 121 44 237 156 277 269 l18
50 76 4 c352 23 554 417 361 705 -18 26 -53 69 -78 95 l-45 46 24 49 c27 57
36 141 19 202 -16 60 -79 125 -143 150 l-52 19 5 83 c3 46 5 158 5 249 0 140
-4 178 -23 250 -47 173 -135 324 -261 451 -123 122 -272 210 -441 259 -98 29
-360 37 -459 15z m399 -125 c246 -59 465 -232 576 -455 66 -135 85 -208 91
-360 5 -129 -8 -349 -21 -362 -12 -12 -156 28 -225 63 -198 99 -298 332 -262
608 7 48 9 95 6 105 -8 27 -50 43 -77 30 -13 -6 -81 -83 -153 -171 -160 -197
-229 -262 -331 -315 -108 -56 -168 -72 -310 -83 -139 -11 -209 -32 -296 -91
-54 -37 -57 -37 -63 -18 -4 12 -7 91 -7 177 -1 129 3 171 20 234 45 167 127
303 255 424 115 110 256 185 412 219 95 21 285 18 385 -5z m66 -860 c75 -262
302 -424 624 -446 47 -3 97 -10 111 -16 40 -14 63 -65 57 -123 -10 -82 -62
-132 -153 -144 -35 -5 -63 -15 -70 -24 -7 -9 -15 -49 -18 -89 -40 -456 -467
-799 -919 -739 -385 51 -679 351 -717 731 -10 94 -27 120 -78 120 -105 0 -189
104 -163 202 15 54 51 78 116 78 60 0 64 3 118 85 39 59 113 118 176 141 25 9
97 20 160 25 286 21 472 128 670 382 l45 58 13 -93 c6 -51 19 -118 28 -148z
m-1256 -837 l47 -17 12 -73 c49 -294 236 -545 509 -682 l62 -31 0 -92 0 -91
-51 6 c-93 11 -193 76 -245 158 -12 20 -32 68 -43 107 -12 41 -29 76 -39 81
-9 5 -47 7 -84 4 -78 -7 -138 3 -138 21 0 7 -8 24 -18 37 -10 13 -24 44 -31
69 -7 25 -23 63 -36 86 -27 45 -102 118 -141 136 -23 11 -25 16 -20 53 10 63
62 158 111 204 24 22 47 41 51 41 3 0 28 -8 54 -17z m2093 -53 c54 -60 92
-136 102 -201 15 -100 -50 -246 -136 -309 -72 -52 -142 -72 -240 -68 -102 3
-113 -3 -128 -73 -31 -145 -155 -259 -299 -276 l-52 -6 0 91 0 91 73 37 c275
138 458 394 511 716 6 32 12 38 49 50 51 17 62 13 120 -52z m-2365 -326 c61
-25 142 -119 142 -164 0 -7 -81 -10 -240 -10 l-240 0 15 37 c25 60 61 99 117
127 61 31 147 35 206 10z m123 -331 c-85 -166 -316 -182 -418 -29 -18 26 -33
52 -33 57 0 5 105 9 235 9 l235 0 -19 -37z m247 -40 c60 -4 82 -9 82 -20 0
-29 63 -137 108 -185 50 -54 103 -89 189 -123 l54 -22 -78 -29 c-43 -15 -148
-53 -233 -84 l-155 -57 -3 116 c-3 142 -9 151 -95 151 l-60 0 6 81 c7 100 48
194 82 184 11 -3 57 -9 103 -12z m790 -115 c90 -11 235 -2 310 18 22 6 22 6
22 -119 l0 -126 -37 -30 c-51 -42 -132 -71 -198 -71 -66 0 -147 29 -197 71
l-38 30 0 126 c0 125 0 125 23 119 12 -3 64 -11 115 -18z m-1258 -100 c41 0
94 7 118 15 l42 15 0 -34 0 -34 -155 0 -155 0 0 34 0 35 38 -16 c23 -9 66 -15
112 -15z m310 -313 l0 -155 -305 0 -305 0 0 155 0 155 305 0 305 0 0 -155z
m1650 0 c118 -43 217 -80 219 -82 3 -2 -14 -22 -36 -46 -50 -52 -83 -104 -114
-182 -22 -57 -23 -74 -27 -342 l-4 -283 -638 0 -639 0 -3 283 c-4 261 -6 286
-26 341 -26 69 -66 135 -117 190 -19 21 -34 40 -33 41 11 7 487 175 497 175 8
0 29 -14 49 -31 20 -18 66 -46 102 -63 59 -28 74 -31 165 -31 120 1 188 23
268 90 50 40 53 41 87 30 19 -7 132 -48 250 -90z m443 -214 c96 -104 101 -128
105 -448 l3 -273 -195 0 -196 0 0 254 c0 225 2 261 20 318 23 75 73 149 131
195 49 39 54 37 132 -46z m-1882 -27 c73 -107 74 -110 77 -416 l3 -278 -100 0
-101 0 0 53 c0 28 -7 65 -15 80 -13 25 -13 32 0 57 22 42 19 116 -6 157 -23
36 -84 73 -122 73 -24 0 -24 1 -20 78 2 42 6 96 9 120 l5 42 70 0 c85 0 109
18 109 81 l0 40 30 -21 c16 -12 44 -41 61 -66z m-397 -111 c-3 -43 -7 -97 -10
-120 l-5 -43 -110 0 -109 0 0 53 c0 28 -3 82 -7 120 l-6 67 126 0 125 0 -4
-77z m-354 -62 c0 -22 -6 -44 -15 -51 -33 -28 -9 -111 42 -146 25 -17 54 -20
253 -24 l225 -5 0 -30 0 -30 -108 -5 c-93 -4 -111 -8 -123 -24 -19 -27 -18
-52 6 -76 17 -17 33 -20 106 -20 99 0 124 -10 124 -48 0 -42 -17 -52 -92 -52
-73 0 -108 -19 -108 -58 0 -42 25 -57 106 -62 59 -4 80 -9 88 -22 8 -13 8 -23
0 -35 -8 -14 -29 -19 -88 -23 -62 -4 -81 -9 -92 -24 -34 -47 1 -96 68 -96 64
0 97 -39 62 -74 -13 -14 -48 -16 -223 -16 -115 0 -232 5 -262 10 -29 6 -97 31
-150 55 -101 48 -202 75 -281 75 l-48 0 0 80 c0 67 -3 83 -20 100 -25 25 -55
25 -80 0 -18 -18 -20 -33 -20 -170 l0 -150 -355 0 -355 0 0 390 0 390 355 0
355 0 0 -60 c0 -65 21 -100 60 -100 29 0 60 35 60 69 0 26 4 29 45 34 87 12
182 80 232 164 38 65 55 73 150 73 l83 0 0 -39z"/>
<path d="M347 4642 c-22 -24 -21 -65 1 -85 28 -26 182 -24 205 1 22 24 21 65
-1 85 -28 26 -182 24 -205 -1z"/>
<path d="M705 4646 c-11 -8 -18 -26 -18 -46 0 -62 -18 -60 582 -60 300 0 551
4 557 8 24 16 35 51 23 75 -7 12 -17 25 -23 29 -6 4 -257 8 -557 8 -444 0
-549 -3 -564 -14z"/>
<path d="M1987 4642 c-22 -24 -21 -65 1 -85 29 -26 165 -24 192 3 11 11 20 29
20 40 0 11 -9 29 -20 40 -28 28 -168 29 -193 2z"/>
<path d="M347 4342 c-22 -24 -21 -65 1 -85 17 -15 63 -17 463 -17 490 0 489 0
489 60 0 60 2 60 -491 60 -419 0 -447 -1 -462 -18z"/>
<path d="M1430 4340 c-11 -11 -20 -29 -20 -40 0 -11 9 -29 20 -40 18 -18 33
-20 193 -20 156 0 176 2 190 18 22 24 21 65 -1 85 -16 14 -45 17 -190 17 -159
0 -174 -2 -192 -20z"/>
<path d="M1960 4340 c-11 -11 -20 -29 -20 -40 0 -11 9 -29 20 -40 17 -17 33
-20 110 -20 77 0 93 3 110 20 11 11 20 29 20 40 0 11 -9 29 -20 40 -17 17 -33
20 -110 20 -77 0 -93 -3 -110 -20z"/>
<path d="M347 4082 c-22 -24 -21 -65 1 -85 15 -14 40 -17 130 -17 99 0 114 2
132 20 11 11 20 29 20 40 0 11 -9 29 -20 40 -18 18 -33 20 -133 20 -98 0 -116
-3 -130 -18z"/>
<path d="M757 4082 c-22 -24 -21 -65 1 -85 17 -15 56 -17 350 -17 319 0 333 1
352 20 11 11 20 29 20 40 0 11 -9 29 -20 40 -19 19 -33 20 -353 20 -311 0
-335 -1 -350 -18z"/>
<path d="M1615 4086 c-11 -8 -18 -26 -18 -46 0 -58 8 -60 300 -60 250 0 264 1
283 20 11 11 20 29 20 40 0 11 -9 29 -20 40 -19 19 -33 20 -283 20 -206 0
-267 -3 -282 -14z"/>
<path d="M347 3832 c-22 -24 -21 -65 1 -85 16 -15 52 -17 303 -17 156 0 289 4
295 8 37 24 36 91 -1 106 -9 3 -144 6 -299 6 -261 0 -284 -1 -299 -18z"/>
<path d="M1130 3830 c-11 -11 -20 -29 -20 -40 0 -11 9 -29 20 -40 19 -19 33
-20 200 -20 167 0 181 1 200 20 11 11 20 29 20 40 0 11 -9 29 -20 40 -19 19
-33 20 -200 20 -167 0 -181 -1 -200 -20z"/>
<path d="M1677 3832 c-22 -24 -21 -65 1 -85 16 -15 45 -17 195 -17 164 0 179
2 197 20 11 11 20 29 20 40 0 11 -9 29 -20 40 -19 19 -33 20 -198 20 -161 0
-181 -2 -195 -18z"/>
</g>
</svg>
