<svg width="73" height="64" viewBox="0 0 73 64" fill="none" xmlns="http://www.w3.org/2000/svg">
<path d="M17.1662 0.25789C17.0931 0.428324 17.0688 5.22481 17.0931 10.9222L17.1662 21.2699L18.9679 21.3429C20.2583 21.3916 20.8427 21.3186 20.9644 21.0995C21.0861 20.929 21.1835 18.7621 21.1835 16.303C21.1835 13.5274 21.2809 11.8961 21.4026 12.0421C21.6705 12.2856 22.9365 14.7934 24.8113 18.7864L26.053 21.416L27.8304 21.3429L29.5835 21.2699V10.6787V0.0874569H27.6356H25.6878L25.6148 4.59177C25.5904 7.05088 25.4444 9.19347 25.3226 9.31521C25.1765 9.4613 24.6896 8.63348 23.9835 7.12392C23.3748 5.80915 22.3522 3.66656 21.7192 2.40048L20.5748 0.0874569L18.9192 0.014414C17.7505 -0.0342813 17.2392 0.0387616 17.1662 0.25789Z" fill="#DC1F1D"/>
<path d="M38.6634 0.28223C37.0565 0.744835 35.3521 2.20569 34.646 3.78829C34.0617 5.05437 34.0617 5.1761 34.1347 10.8491C34.2078 17.3012 34.2565 17.4473 36.0095 19.2734C37.373 20.7342 38.5417 21.2455 40.5382 21.2455C42.4373 21.2699 43.5573 20.856 44.7747 19.6629C45.8216 18.6647 46.2599 17.9343 46.6494 16.4734C47.0146 15.0856 47.1364 9.09607 46.7955 8.87695C46.6738 8.8039 45.286 8.73086 43.679 8.70651L40.7816 8.68216V10.703C40.7816 12.7239 40.7816 12.7482 41.3903 12.7726C42.9729 12.8213 42.9242 12.7482 42.8025 14.3795C42.7051 15.6212 42.5834 15.9621 42.0234 16.4491C40.7329 17.5447 38.9312 17.0091 38.4686 15.3534C38.1764 14.2334 38.1521 7.24565 38.4686 5.93088C39.0043 3.6422 41.6338 3.42308 42.7295 5.59001C43.0947 6.27175 43.1677 6.2961 44.9207 6.2961C46.2112 6.2961 46.7468 6.19871 46.7712 5.97958C46.8929 4.7622 46.2112 3.05786 45.2129 1.96222C43.7034 0.330926 40.9764 -0.350808 38.6634 0.28223Z" fill="#DC1F1D"/>
<path d="M56.1217 0.184859C54.5635 0.574421 52.7131 2.03528 51.9096 3.49614C51.2766 4.61613 51.1548 15.0613 51.7392 16.863C52.8592 20.296 56.1704 22.0734 59.4817 21.0264C61.1617 20.4908 62.4034 19.4925 63.3043 17.8856L64.0347 16.6439V10.6787C64.0347 4.03178 63.9373 3.54483 62.306 1.93789C60.8208 0.452683 58.0695 -0.326442 56.1217 0.184859ZM59.1165 4.59178C59.4087 4.8596 59.7008 5.34656 59.7739 5.63873C59.8713 5.95525 59.8956 8.34132 59.8469 10.9709C59.7739 15.6456 59.7495 15.7673 59.1895 16.376C58.3861 17.2282 57.2661 17.2282 56.2678 16.376L55.513 15.743V10.557V5.3709L56.2678 4.73787C57.193 3.95874 58.3617 3.91005 59.1165 4.59178Z" fill="#DC1F1D"/>
<path d="M64.0343 23.9481C63.1091 24.2403 62.1595 25.0681 58.0691 29.1829C53.2726 34.0037 53.1996 34.0524 52.177 34.0524C51.1787 34.0524 51.0813 33.9794 50.3996 32.8837C49.6692 31.6907 48.9874 31.082 47.4779 30.2542C46.6744 29.8159 45.8709 29.7916 34.0136 29.7185C19.9407 29.6455 21.3042 29.4751 18.9912 31.3742C18.3825 31.8855 13.8782 35.4402 8.95993 39.2872C4.01736 43.1341 0 46.3723 0 46.5184C0 46.8349 15.0225 64 15.3147 64C15.4607 64 16.2642 63.3426 17.652 62.0765C18.0659 61.7357 20.7442 59.3496 23.6172 56.8174C26.4902 54.2853 29.0711 52.021 29.3146 51.7775C29.7528 51.3636 30.6293 51.3392 41.9997 51.3392H54.1978L62.8169 42.5741C72.2881 32.9568 72.6533 32.4698 72.6533 29.9133C72.6533 28.3307 71.8986 26.5046 70.8029 25.336C69.2934 23.8021 66.4447 23.2177 64.0343 23.9481ZM67.3456 28.0872C68.0516 28.5742 68.5142 29.7672 68.2951 30.5707C68.1977 31.0333 65.4708 33.9307 60.3091 39.0924L52.4692 46.9567H40.344H28.1946L26.5633 48.5393C24.9076 50.1218 24.2989 50.414 23.9337 49.781C23.8363 49.6105 22.9598 48.5879 22.0103 47.541C17.7494 42.8419 15.3877 40.0419 15.5094 39.7985C15.5581 39.6524 17.1651 38.2889 19.0642 36.8037L22.5216 34.0524H34.1597H45.8222L46.5527 34.7828C47.1614 35.4159 47.2588 35.6594 47.137 36.3167C47.064 36.7306 46.6988 37.388 46.3335 37.7532L45.6762 38.435H38.9075H32.1389V40.5289V42.5984L39.2727 42.5254C45.9196 42.4523 46.4553 42.428 47.4779 41.941C48.6953 41.3567 49.7909 40.4071 50.6187 39.2141C51.1544 38.4593 51.2031 38.435 53.0291 38.435H54.9039L60.1387 33.0785C64.6917 28.4281 65.4708 27.722 66.1038 27.722C66.5177 27.722 67.0777 27.8925 67.3456 28.0872ZM15.6312 46.7375C17.5546 48.9045 19.5755 51.1931 20.1598 51.8262C20.7198 52.4836 21.1824 53.1166 21.1824 53.2627C21.1824 53.3844 19.9651 54.5531 18.4799 55.8435C16.2399 57.7914 15.7042 58.1322 15.4364 57.8644C14.4625 56.8418 6.08691 47.3219 6.08691 47.2001C6.11126 46.9323 11.4677 42.8176 11.8086 42.8176C12.0034 42.8176 13.7077 44.5949 15.6312 46.7375Z" fill="#DC1F1D"/>
</svg>
