<svg width="50" height="50" viewBox="0 0 50 50" fill="none" xmlns="http://www.w3.org/2000/svg">
<rect x="1" y="1" width="48" height="48" rx="24" stroke="#DC1A1A" stroke-width="2"/>
<path d="M20 18.8578C20 18.0069 20 17.5814 20.1854 17.3469C20.3469 17.1426 20.5938 17.0162 20.8611 17.0009C21.1679 16.9834 21.5378 17.2194 22.2777 17.6914L31.9066 23.8336C32.5179 24.2236 32.8236 24.4186 32.9301 24.6644C33.0233 24.8793 33.0233 25.1207 32.9301 25.3357C32.8236 25.5814 32.5179 25.7764 31.9066 26.1664L22.2777 32.3086C21.5378 32.7806 21.1679 33.0166 20.8611 32.9991C20.5938 32.9838 20.3469 32.8574 20.1854 32.6531C20 32.4185 20 31.9931 20 31.1422V18.8578Z" stroke="#DC1A1A" stroke-width="2" stroke-linecap="round" stroke-linejoin="round"/>
</svg>
