<svg width="65" height="64" viewBox="0 0 65 64" fill="none" xmlns="http://www.w3.org/2000/svg">
<path fill-rule="evenodd" clip-rule="evenodd" d="M38.5613 0.119969C34.2249 0.0133246 29.8881 -0.0222094 25.5507 0.0133246C25.3415 2.84028 25.2704 5.68415 25.3374 8.54489H17.2324V21.5555H25.3374C25.3018 24.3291 25.3374 27.1019 25.4441 29.8738C27.6322 30.0148 29.8361 30.0858 32.056 30.0871C34.2759 30.0858 36.4798 30.0148 38.668 29.8738C38.7746 27.1019 38.8102 24.3291 38.7746 21.5555C41.4772 21.5911 44.1789 21.5555 46.8796 21.4489C47.0206 19.332 47.0916 17.1991 47.0929 15.0502C47.0916 12.9014 47.0206 10.7685 46.8796 8.65153C44.1789 8.54491 41.4772 8.50935 38.7746 8.54489C38.8435 5.71964 38.7723 2.91133 38.5613 0.119969ZM34.8273 4.06581C33.0324 3.8561 31.2195 3.78499 29.3884 3.85252C29.424 6.55512 29.3884 9.25677 29.2818 11.9575C26.4894 12.1332 23.6812 12.2398 20.8568 12.2774C20.5725 14.0548 20.5725 15.8323 20.8568 17.6097C23.6812 17.6472 26.4894 17.7538 29.2818 17.9296C29.3884 20.7015 29.424 23.4743 29.3884 26.2479C31.2195 26.3155 33.0324 26.2442 34.8273 26.0346C34.9339 23.2627 34.9695 20.4899 34.9339 17.7163C37.7075 17.7519 40.4803 17.7163 43.2522 17.6097C43.5365 15.8323 43.5365 14.0548 43.2522 12.2774C40.4803 12.1708 37.7075 12.1353 34.9339 12.1708C34.9695 9.46818 34.9339 6.76654 34.8273 4.06581Z" fill="#DC1F1D"/>
<path fill-rule="evenodd" clip-rule="evenodd" d="M10.9391 8.97147C9.47928 6.33964 7.23974 5.20208 4.22047 5.55885C2.31044 6.29615 0.995173 7.64699 0.274619 9.61134C0.132419 18.925 0.132419 28.2385 0.274619 37.5522C2.85736 42.5747 5.31018 47.6224 7.63309 52.6957C6.97789 52.6281 6.33802 52.6991 5.71349 52.909C3.8577 56.5392 2.00919 60.1651 0.167974 63.7868C21.4259 64.0711 42.6835 64.0711 63.9414 63.7868C62.1442 60.121 60.2957 56.495 58.3959 52.909C57.8443 52.7 57.2755 52.629 56.6896 52.6957C56.6561 52.4029 56.6917 52.1184 56.7962 51.8426C59.2648 46.9764 61.682 42.0707 64.048 37.1256C64.1903 28.0965 64.1903 19.0671 64.048 10.0379C63.6887 8.85611 63.0844 7.82519 62.2351 6.94523C58.2001 4.49948 55.1074 5.3882 52.957 9.61134C52.8504 14.8719 52.8148 20.1331 52.8504 25.3947C50.7941 24.8521 48.9455 25.2431 47.3049 26.5678L32.0547 41.818L16.5912 26.3545C14.9685 25.2247 13.1912 24.9048 11.259 25.3947C11.3598 19.9066 11.2531 14.4321 10.9391 8.97147ZM57.7546 9.39806C58.6724 9.24794 59.4189 9.53232 59.9942 10.2512C60.1364 19.0671 60.1364 27.8832 59.9942 36.6991C57.4665 41.9581 54.8714 47.2193 52.2091 52.4824C46.1677 52.6957 40.1244 52.7668 34.0796 52.6957C34.0439 50.4195 34.0796 48.1444 34.1862 45.8705C34.4291 45.1001 34.7847 44.389 35.2526 43.7376C40.1879 39.0158 45.058 34.2168 49.8629 29.3406C51.8785 28.7255 52.8383 29.472 52.7423 31.5801C49.5157 36.5764 46.2097 41.5177 42.8244 46.4037C43.6172 47.1257 44.4704 47.7656 45.3839 48.3233C45.6919 48.4899 45.9762 48.4543 46.237 48.2167C49.6674 42.9917 53.0444 37.7305 56.3683 32.4333L56.5816 10.8911C56.7878 10.2255 57.1788 9.7278 57.7546 9.39806ZM5.07234 9.39803C6.20576 9.23587 7.02336 9.66245 7.52516 10.6778L7.73845 32.22C11.0063 37.6172 14.3833 42.9495 17.8697 48.2166C18.1305 48.4542 18.4149 48.4899 18.7228 48.3233L21.069 46.7236C21.3 46.5391 21.3354 46.3258 21.1757 46.0837L11.3644 31.5801C11.2683 29.4719 12.2282 28.7254 14.2438 29.3406C19.2501 34.1336 24.1914 39.0036 29.0674 43.9509C29.6298 44.7127 29.9851 45.5659 30.1338 46.5103C30.3083 48.5532 30.2727 50.5795 30.0272 52.5891C23.9828 52.7667 17.9394 52.7313 11.8976 52.4824C9.21746 47.253 6.62244 41.9208 4.11254 36.4857C3.97034 27.8119 3.97034 19.1383 4.11254 10.4645C4.33116 9.99802 4.65109 9.64255 5.07234 9.39803ZM30.2411 56.5349H8.05902C7.49726 57.7278 6.99957 58.9366 6.566 60.1608C14.3869 60.1964 22.2076 60.1608 30.0278 60.0542C30.2353 58.9009 30.3066 57.7278 30.2411 56.5349ZM34.0811 56.5349C41.4044 56.4993 48.7273 56.5349 56.0499 56.6416L57.7562 59.8409C49.8957 60.1594 42.004 60.266 34.0811 60.1608V56.5349Z" fill="#DC1F1D"/>
</svg>
