<svg width="82" height="85" viewBox="0 0 82 85" fill="none" xmlns="http://www.w3.org/2000/svg">
<path d="M35.1424 12.5982C33.4797 13.0915 32.006 14.154 30.9101 15.6719C30.1922 16.6964 30.0032 17.5312 29.8521 20.6808L29.6631 24.4754L27.9627 24.5513C27.018 24.5893 25.8087 24.6272 25.2797 24.6272C23.4659 24.7031 20.8963 26.7902 19.7627 29.2187C18.818 31.1919 18.5534 31.4576 17.3442 31.6852C15.3793 32.0268 13.0364 33.8861 12.1295 35.7835C11.4493 37.1875 11.3359 38.1361 11.3359 42.5759C11.3359 45.4219 11.4493 48.0402 11.5627 48.3817C11.9783 49.4062 13.3387 49.6719 16.2484 49.2924C18.4779 49.0268 19.2336 49.0647 20.2161 49.558C22.3322 50.5446 23.0124 53.6562 21.5009 55.5536C20.3295 57.0714 19.347 57.2991 16.0972 56.8437C13.641 56.5402 13.0742 56.5402 12.2806 57.0714C11.3359 57.6786 11.3359 57.7924 11.3359 62.9152C11.3359 68.9486 11.6382 70.2388 13.3009 72.0223C15.417 74.2232 16.2862 74.4888 21.9922 74.6786C26.4889 74.8303 27.3203 74.7544 28.1894 74.1853C29.2097 73.5402 29.2097 73.5022 28.9829 70.087C28.7184 66.1786 29.1341 64.8884 30.9857 63.9397C32.3839 63.2187 33.0263 63.2187 34.6511 64.0156C36.6539 64.9643 37.1452 66.4821 36.6161 69.8594C35.8981 74.5647 36.5028 74.9442 44.1737 74.6786C49.2373 74.4888 50.7866 73.9576 52.676 71.6049C53.5074 70.5424 53.8097 69.7076 53.9608 68.1518C54.112 66.2165 54.2631 65.9509 55.9258 64.5469C58.2309 62.5736 58.9488 61.0558 58.9488 57.9442V55.4777L63.2567 55.3638C67.3756 55.212 67.6401 55.1741 69.2272 53.9978C70.0963 53.3527 71.2299 52.1004 71.6834 51.1897C72.4769 49.7477 72.5525 49.0647 72.5525 44.2076C72.5525 37.4152 72.4769 37.3013 68.8871 37.529C64.088 37.8326 63.8235 37.7946 62.6521 36.5044C61.3295 34.9866 61.2161 32.8616 62.3875 31.3437C63.6346 29.7879 64.7304 29.5223 67.9046 29.9777C70.323 30.3571 70.8521 30.3192 71.6456 29.8259C72.5147 29.2187 72.5525 29.1049 72.5525 24.1339C72.5525 17.8348 72.4014 17.1138 70.7765 15.1785C68.6226 12.6741 67.7534 12.4085 61.8585 12.2187C57.3995 12.0669 56.5304 12.1428 55.6991 12.712C54.6788 13.3571 54.6788 13.3951 54.9433 16.7723C55.1322 19.808 55.0945 20.3772 54.4143 21.4397C53.6963 22.6161 52.2981 23.5268 51.1645 23.5268C50.8244 23.5268 49.9553 23.2232 49.2373 22.8817C47.2723 21.971 46.7433 20.4152 47.2346 17.1897C47.7258 14.0781 47.4991 12.9777 46.2521 12.5223C45.0051 12.029 36.8806 12.1049 35.1424 12.5982ZM43.2668 19.087C43.3046 22.0469 43.7958 23.375 45.4963 25.1205C47.1968 26.8281 48.935 27.4352 51.618 27.2455C56.1903 26.9419 58.9488 23.8303 58.9488 18.8973V16.3169H62.7276C66.2797 16.3169 66.6198 16.3928 67.4511 17.2656C68.3203 18.1004 68.3958 18.4419 68.3958 21.933V25.6897L65.5617 25.8794C62.2364 26.1071 60.347 27.1317 58.6843 29.6741C57.7774 31.0402 57.6263 31.6473 57.6263 33.9241C57.6263 36.2009 57.7774 36.846 58.6843 38.1361C60.3848 40.6786 62.0097 41.5134 65.4484 41.7031L68.3958 41.8169V45.6116C68.3958 49.1027 68.3203 49.4442 67.4511 50.279C66.582 51.1897 66.3553 51.2277 61.1028 51.2277C56.8705 51.2277 55.5479 51.3415 55.2078 51.7589C54.9055 52.1004 54.7922 53.6183 54.8677 56.1607L54.9811 59.9933L53.7341 61.1317C51.5802 63.0669 48.5193 62.4219 47.4235 59.8036C47.0078 58.8549 47.0078 57.9442 47.3101 55.6294C47.8769 51.3036 47.7636 51.2277 41.1507 51.2277C38.3166 51.2277 35.6714 51.1138 35.3313 51C33.971 50.4687 33.6309 48.837 33.6309 42.9174C33.6309 35.6317 33.5931 35.5937 28.5673 36.4286C25.8465 36.8839 24.1461 36.2768 23.277 34.5692C22.3322 32.7857 22.5212 31.2299 23.7682 29.9777C25.1664 28.5357 26.2244 28.308 29.4742 28.7254C33.5553 29.2567 33.6309 29.1428 33.6309 23.2991C33.6309 18.5558 33.6309 18.5178 34.7267 17.4174C35.8226 16.3549 35.9359 16.3169 39.5636 16.3169H43.2668V19.087ZM20.6318 37.529C22.6723 39.8058 24.7129 40.7165 27.5848 40.5268L29.6631 40.4129L29.8521 45.5357C30.041 50.8861 30.2299 51.5312 32.006 53.2009C33.782 54.9085 35.4825 55.4018 39.488 55.4018H43.0779V57.4509C43.0779 61.9286 45.3074 64.8884 49.6152 66.1786C50.6355 66.4821 50.4087 68.1897 49.1617 69.4799C48.0659 70.5424 47.9525 70.5803 44.2871 70.5803H40.5461L40.735 68.7589C41.2263 63.3705 37.2207 59.1964 31.9304 59.6518C27.6604 59.9933 24.9396 63.2567 24.9396 68V70.5803H21.5387C17.9488 70.5803 16.1728 70.0491 15.7193 68.8728C15.606 68.5312 15.4926 66.6719 15.4926 64.6986V61.2076L18.3267 61.0178C21.6521 60.7902 23.5415 59.7656 25.2041 57.2232C26.0733 55.8951 26.2622 55.25 26.2622 53.1629C26.2622 50.0513 25.3175 48.0781 23.088 46.4844C21.6899 45.4977 21.0852 45.346 18.4779 45.1942L15.4926 45.0803V41.2857C15.4926 37.7946 15.5682 37.4531 16.4373 36.6183C17.7977 35.2143 18.7424 35.404 20.6318 37.529Z" fill="#DC1A1A"/>
</svg>
