<svg width="64" height="64" viewBox="0 0 64 64" fill="none" xmlns="http://www.w3.org/2000/svg">
<path d="M8.45037 0.239237C5.67631 0.751372 2.64618 2.99196 1.30183 5.50996C-0.0425257 8.02795 0.000152115 7.23841 0.000152115 31.9916C0.000152115 56.4674 -0.0211868 55.8912 1.19513 58.2812C2.53949 60.9059 5.67631 63.2318 8.62109 63.7653C9.4533 63.9146 15.4069 64 25.7989 64C43.2755 63.9787 43.0408 64 45.6228 62.6983C47.0952 61.9515 49.2291 59.8602 49.9119 58.4946C51.0002 56.318 51.1069 55.6138 51.1069 50.7272V46.0753L50.5521 45.5205C49.7199 44.7096 48.4396 44.6883 47.65 45.4991L47.0525 46.0753L46.9458 50.6205C46.8391 54.7176 46.7965 55.2297 46.3697 56.0192C45.7935 57.1075 44.3211 58.5586 43.2329 59.1561C42.358 59.6255 42.3153 59.6255 25.8416 59.6895L9.34661 59.7322L8.23698 59.2414C6.67924 58.5159 5.67631 57.5556 4.90811 56.0619L4.26794 54.7602V31.9916V9.22293L4.90811 7.92126C5.65497 6.42753 6.6579 5.48862 8.19431 4.76309L9.28259 4.25096H25.6069H41.9312L43.2115 4.86979C44.5345 5.50996 45.3241 6.21414 45.9856 7.38778C46.4124 8.13465 47.3513 8.62544 48.2048 8.56143C48.973 8.51875 49.9333 7.38778 49.9333 6.5769C49.9333 5.0405 47.8634 2.54384 45.5588 1.32752C42.9981 -0.0168302 43.0408 -0.0168302 25.4362 0.00450877C16.6018 0.0258477 9.02653 0.111203 8.45037 0.239237Z" fill="#DC1F1D"/>
<path d="M9.88096 8.73212C9.34749 8.94551 8.75 9.96978 8.75 10.6526C8.75 11.3781 9.36883 12.3597 9.94498 12.5731C10.7559 12.8932 15.1517 12.8292 15.7919 12.5091C16.1119 12.3597 16.4534 11.8903 16.6241 11.3995C16.8801 10.6526 16.8588 10.4392 16.5814 9.73505C16.368 9.24425 16.0266 8.86015 15.6852 8.73212C15.0023 8.47605 10.5211 8.47605 9.88096 8.73212Z" fill="#DC1F1D"/>
<path d="M55.482 11.933C55.1833 12.0183 54.287 12.3384 53.4762 12.6585C51.7904 13.2987 48.9523 14.0882 46.3063 14.6217C44.7912 14.9204 42.7853 15.0058 34.2498 15.1125L24.0071 15.2405L22.9401 15.8167C22.3426 16.1154 21.4464 16.8196 20.9343 17.3744C19.3125 19.1242 19.3125 19.1455 19.3125 26.1234V32.3117L19.8887 33.3999C20.6142 34.787 22.3853 36.3874 23.5376 36.7288C24.0284 36.8569 25.202 37.0276 26.1196 37.0916L27.8054 37.2196L28.5949 39.9937C29.6619 43.728 29.8966 44.1974 31.2196 45.5205C34.3991 48.7 39.2004 49.1481 41.1849 46.438C42.1025 45.179 42.0598 43.792 40.9929 40.2284C40.5234 38.692 40.2033 37.369 40.246 37.2836C40.6301 36.6648 47.6079 37.7317 51.8331 39.0761C56.6983 40.6125 57.2958 40.7619 58.2988 40.6765C60.582 40.4845 62.9933 38.5426 63.6335 36.4087C63.8469 35.7472 63.9109 33.0799 63.9109 26.0167V16.5208L63.3988 15.3899C62.8439 14.1309 61.4142 12.7438 60.0699 12.125C59.1736 11.6982 56.5276 11.5915 55.482 11.933ZM58.6829 16.1367C59.0243 16.3288 59.387 16.7129 59.5151 16.9903C59.6644 17.3317 59.7498 20.4472 59.7498 26.3368C59.7498 34.9577 59.7285 35.2138 59.323 35.6192C58.3628 36.5794 57.9787 36.5581 54.7565 35.5338C47.5226 33.2079 44.6418 32.8451 33.1828 32.8451H24.8606L24.2205 32.333L23.5803 31.8209L23.5163 26.2941L23.4523 20.7886L24.1351 20.0844L24.7966 19.4016H33.9083C43.2548 19.4016 45.7728 19.2309 48.931 18.4413C49.6138 18.2706 50.4033 18.1213 50.6807 18.1213H51.1929L51.2569 23.3706C51.3209 28.5987 51.3209 28.62 51.8331 29.0255C52.7933 29.815 53.9029 29.815 54.8632 29.0255L55.3753 28.62L55.4393 22.6238L55.5034 16.6275L56.2929 16.2008C57.2745 15.6886 57.9147 15.6673 58.6829 16.1367ZM35.8715 37.7531C35.9569 38.0518 36.405 39.5029 36.8745 40.9966C37.3439 42.4903 37.664 43.7707 37.6 43.8347C37.3439 44.0694 36.2129 43.92 35.4234 43.5146C34.1857 42.8958 33.5029 41.8288 32.8201 39.5029C32.5 38.3719 32.2226 37.3476 32.2226 37.2623C32.2226 37.1769 33.0121 37.1129 33.9724 37.1556C35.6155 37.2196 35.7221 37.241 35.8715 37.7531Z" fill="#DC1F1D"/>
<path d="M20.1232 51.41C19.5897 51.6234 18.9922 52.6477 18.9922 53.3305C18.9922 54.056 19.611 55.0376 20.1872 55.251C20.4859 55.3791 22.9399 55.4644 25.6286 55.4644C30.9633 55.4644 31.4755 55.3791 31.9663 54.2908C32.4571 53.2025 32.1156 52.0075 31.134 51.4954C30.6646 51.2606 29.4696 51.1966 25.5646 51.218C22.8332 51.218 20.3792 51.3033 20.1232 51.41Z" fill="#DC1F1D"/>
</svg>
